<mxfile host="app.diagrams.net" modified="2024-03-04T08:00:52.049Z" agent="Mozilla/5.0 (Windows NT 10.0; Win64; x64) AppleWebKit/537.36 (KHTML, like Gecko) Chrome/122.0.0.0 Safari/537.36" etag="27-gqLwJOEewKzKdcpnm" version="24.0.1" type="github">
  <diagram name="Page-1" id="T0GCtDTDZE_z4KIRWKmC">
    <mxGraphModel dx="904" dy="1643" grid="1" gridSize="10" guides="1" tooltips="1" connect="1" arrows="1" fold="1" page="1" pageScale="1" pageWidth="850" pageHeight="1100" math="0" shadow="0">
      <root>
        <mxCell id="0" />
        <mxCell id="1" parent="0" />
        <mxCell id="vCL47iHc-PsyLdccSqnO-1" value="&amp;lt;App&amp;gt;" style="rounded=0;whiteSpace=wrap;html=1;" vertex="1" parent="1">
          <mxGeometry x="120" y="150" width="80" height="20" as="geometry" />
        </mxCell>
        <mxCell id="vCL47iHc-PsyLdccSqnO-3" value="&amp;lt;/App&amp;gt;" style="rounded=0;whiteSpace=wrap;html=1;" vertex="1" parent="1">
          <mxGeometry x="120" y="490" width="80" height="20" as="geometry" />
        </mxCell>
        <mxCell id="vCL47iHc-PsyLdccSqnO-4" value="&amp;lt;/Container&amp;gt;" style="rounded=0;whiteSpace=wrap;html=1;" vertex="1" parent="1">
          <mxGeometry x="161" y="460" width="80" height="20" as="geometry" />
        </mxCell>
        <mxCell id="vCL47iHc-PsyLdccSqnO-5" value="&amp;lt;Container&amp;gt;" style="rounded=0;whiteSpace=wrap;html=1;" vertex="1" parent="1">
          <mxGeometry x="170" y="179" width="80" height="20" as="geometry" />
        </mxCell>
        <mxCell id="vCL47iHc-PsyLdccSqnO-6" value="&amp;lt;Wrapper container-left&amp;gt;" style="rounded=0;whiteSpace=wrap;html=1;" vertex="1" parent="1">
          <mxGeometry x="201" y="210" width="160" height="20" as="geometry" />
        </mxCell>
        <mxCell id="vCL47iHc-PsyLdccSqnO-7" value="&amp;lt;/Wrapper container-left&amp;gt;" style="rounded=0;whiteSpace=wrap;html=1;" vertex="1" parent="1">
          <mxGeometry x="202" y="390" width="160" height="20" as="geometry" />
        </mxCell>
        <mxCell id="vCL47iHc-PsyLdccSqnO-8" value="&amp;lt;h1&amp;gt;" style="rounded=0;whiteSpace=wrap;html=1;" vertex="1" parent="1">
          <mxGeometry x="241" y="240" width="80" height="20" as="geometry" />
        </mxCell>
        <mxCell id="vCL47iHc-PsyLdccSqnO-9" value="&amp;lt;/h1&amp;gt;" style="rounded=0;whiteSpace=wrap;html=1;" vertex="1" parent="1">
          <mxGeometry x="381" y="240" width="80" height="20" as="geometry" />
        </mxCell>
        <UserObject label="Friends" placeholders="1" name="Variable" id="vCL47iHc-PsyLdccSqnO-11">
          <mxCell style="text;html=1;strokeColor=none;fillColor=none;align=center;verticalAlign=middle;whiteSpace=wrap;overflow=hidden;" vertex="1" parent="1">
            <mxGeometry x="311" y="240" width="80" height="20" as="geometry" />
          </mxCell>
        </UserObject>
        <mxCell id="vCL47iHc-PsyLdccSqnO-12" value="&amp;lt;div grid grid--2-cols&amp;gt;" style="rounded=0;whiteSpace=wrap;html=1;" vertex="1" parent="1">
          <mxGeometry x="241" y="270" width="160" height="20" as="geometry" />
        </mxCell>
        <mxCell id="vCL47iHc-PsyLdccSqnO-13" value="&amp;lt;/div grid grid--2-cols&amp;gt;" style="rounded=0;whiteSpace=wrap;html=1;" vertex="1" parent="1">
          <mxGeometry x="240" y="360" width="160" height="20" as="geometry" />
        </mxCell>
        <mxCell id="vCL47iHc-PsyLdccSqnO-14" value="&amp;lt;Left friends={friends} /&amp;gt;" style="rounded=0;whiteSpace=wrap;html=1;" vertex="1" parent="1">
          <mxGeometry x="281" y="300" width="160" height="20" as="geometry" />
        </mxCell>
        <mxCell id="vCL47iHc-PsyLdccSqnO-16" value="&amp;lt;Right stateManipulation /&amp;gt;" style="rounded=0;whiteSpace=wrap;html=1;" vertex="1" parent="1">
          <mxGeometry x="281" y="330" width="160" height="20" as="geometry" />
        </mxCell>
        <mxCell id="vCL47iHc-PsyLdccSqnO-17" value="" style="shape=image;verticalLabelPosition=bottom;labelBackgroundColor=default;verticalAlign=top;aspect=fixed;imageAspect=0;image=data:image/png,iVBORw0KGgoAAAANSUhEUgAABakAAALsCAYAAADpiDubAAAACXBIWXMAAAsTAAALEwEAmpwYAAAAAXNSR0IArs4c6QAAAARnQU1BAACxjwv8YQUAALJCSURBVHgB7N19kFzlfeb93+lpRVL3jGRQjySI0Iu94CfIOAmNFO8uoE4FqFpknqqNwUk58WPssFspnIpxVSBbtXEB5aRqDVvlJBUgtcXG4HVcjiHJH1j8gUm5hZ1dW2jYGAxZi42FBEYv3UIvM90z4xnNec51d9+tM615nz6jnjnfT9Whu093nz7dEpLmmt9cd2CRMAyDSHQRupsGAAAAAAAAAEACFEbrwlw0HQaZ5n4F08HDDz+cMQAAAAAAAAAAkuNyaA1Na3haNwJ/R7lcJqQGAAAAAAAAACTJ5dLNiWp3I/z4xz/eo50//vGPf84AAAAAAAAAAEjOqmjr0SS16j6yzT5q3dEzMjKyygAAAAAAAAAASMjll1++6r333ptoBtNhRp0fpVJJN3pOnz5NSA0AAAAAAAAASMzY2JgaPVy7h25P6qRu3gEAAAAAAAAAQCIGBwddLq3haVV+tC+UGBgAAAAAAAAAAMlxIXW5XFbjR6hQ2lV9RNuaaOuNkutjBgAAAAAAAABAAvL5/JX1en0wujoabeMZjVOXSiV/P5PUAAAAAAAAAIDERAG19ff3+5uNhRMHBweDQqEQ5HI5AwAAAAAAAAAgQWHsMojXfayNtjx1HwAAAAAAAACApARBcGV0MRRtI9E25hZOLBaLQX9/f5jP5w0AAAAAAAAAgASFdmGaOnAh9cDAgIVhGNRqNTqpAQAAAAAAAABJ8jm0C6vdwolSrVYNAAAAAAAAAICkaeFENXzouuukjm5kjx49urpSqfTSSQ0AAAAAAAAASEqzk3rQGp3U51X3EcbvNwAAAAAAAAAAkhMWCgU3QG3Nuo+gr68v1KUBAAAAAAAAAJCgfD6vaeqwVCppgDrIame5XPb3hwYAAAAAAAAAQEJqtVoQbTY4OOgmqbMGAAAAAAAAAMASyeVy2oKBgQE3SZ0JgiB+J5UfAAAAAAAAAIDE1Ot1q1arYbFYdJPUvpxaE9Vroi0fhuExAwAAAAAAAAAgAb29vVfU1PdhNhJt4xl/R6FQYJIaAAAAAAAAAJAodVJbbH1EH1KH1WpVY9YsnAgAAAAAAAAASJLLoUulUhhxIbXv/gAAAAAAAAAAIGlBoVAIyuWyy6UVUgd9fX1MUAMAAAAAAAAAlkIrjw6CwDKapx4cHGSSGgAAAAAAAACwJKrVaiuozgaKqqPkWgsnRncQVgMAAAAAAAAAlowmqXUZaOHEfD5P7QcAAAAAAAAAIEmThqXVSe1WUezv7w9rtZoBAAAAAAAAAJCkKI/WhdqoXd2HpqcDa0uvAQAAAAAAAABIQqVSCUqlkls40YfTPdG2NtryUXJ9zAAAAAAAAAAASEA+n7+yXq8PRVdHom0809wftF0CAAAAAAAAAJAUtz6i6j7cwonqpI7fAQAAAAAAAABAEmIV1K7uQ53Uk+43AAAAAAAAAAASUqvVlEOHxWLRBgYGzNV9RDfcTmOSGgAAAAAAAACQLJdDK6DWdVf30dfX58arc7kck9QAAAAAAAAAgMTk8/n4zSDb7P+QsF6vM0kNAAAAAAAAAEhMs+6jRZPU2uE3AAAAAAAAAACWQqimj4y/1d/fzxQ1AAAAAAAAACBxhULBDU0HQdBaONEqlQqT1AAAAAAAAACApaJMOgxU9xHpiW6sibbe6PYxAwAAAAAAAAAgAVEefUV0UYu2kWgby2iculgs0ksNAAAAAAAAAFgKQax+OsiqmFpBdRO91AAAAAAAAACAJGnBxFYonYkF1MIkNQAAAAAAAAAgUdVqNdRaiZHQLZxYKpU0Qe03AAAAAAAAAAASkcvl4tXTgQupBwcH6aMGAAAAAAAAACQuCIJJA9OZ2H1hPp83AAAAAAAAAACSNjAw4C79BHU22lZHW28YhscMAAAAAAAAAIAEBEFwZaFQGKpWqyPRzTE3Sa2C6mgndR8AAAAAAAAAgKSFWjjRGpUfQXySek0+MjQ0xCQ1AAAAAAAAACARUQx9Zb1eH4yujlp8klpqtZoBAAAAAAAAAJCUKKAOYzcDF1IPDAyE/f39oQEAAAAAAAAAkKwgXj+dCcNGNl2pVOikBgAAAAAAAAAkKp/PtwamlU9ngiBw5dRRcq19BNUAAAAAAAAAgMREwXSgXFo11NGl+YUTe6JtbbTlowewcCIAAAAAAAAAIBFRMH1Ff3//UKVSGY3y6HF1UrvRak1S53I5JqkBAAAAAAAAAIny9dOapFZI3Qqm21ZVBAAAAAAAAAAgKcqjw0zzRlCtVsN8Pm8AAAAAAAAAACRFjR79/f3qpA5cP3WzpJpOagAAAAAAAABA4qI8+sroYijaRqJtLKNVFEulku4L6aQGAAAAAAAAACwBXz0dZDRJXS6XNV5tAAAAAAAAAAAkKZfLuctisegufd1HNrq+Jrqzt1arvWsAAAAAAAAAACQgyqOvsAt1H+OZ+J31et0AAAAAAAAAAEhQEN/USW2lUsn3f4QGAAAAAAAAAEBywkKh0Lru02pX9xFt+TAMjxkAAAAAAAAAAAno7e29ohaJrg5H23lX9+ELqgEAAAAAAAAASFKUT2twWq0eWjPR2iepe6OdLJwIAAAAAAAAAEhEEARXRheD0TYabWOTFk7M5/MTBgAAAAAAAABAcsL+/n53GQkm1X3UarWMAQAAAAAAAACQnKBSqbiWj0hr4cSeaFtr1H0AAAAAAAAAABLUXDhxyBp1H+N+ctoXVYcGAAAAAAAAAEBCooDaVPfRbPgIFVKHpVLJh9OBAQAAAAAAAACQoEql4q8G8bqPNdao+zhmAAAAAAAAAAAkIAiCKwqFQq1arY5EN8dadR/N1RSZpAYAAAAAAAAAJCoKqM03fExaODGXy/XWajUWTgQAAAAAAAAAJEKT1NGFXzjRTVIrrXYLJ9brdQMAAAAAAAAAICm5XM43e0igkNpXfAT5fD40AAAAAAAAAAASomHpMAzd4HTE/CR1WCgUrFarGQAAAAAAAAAASapWq2GpVFL1x4VO6iikXjs8PJwfGho6ZgAAAAAAAAAAJCDeSR2G4bgmqa1YLAZaTZFJagAAAAAAAABAwlqd1JqkdnUfAwMDru4DAAAAAAAAAIAkxddG9J3UrvJDk9RaVdEAAAAAAAAAAEiIFk2sVCruemuSulQqueS6Xq+HBgAAAAAAAABAQqIc2l0Wi0VdhK2FE6NtbbT1Rin2uwYAAAAAAAAAQAJiCyeORNt4Rp0f1giqw3gXCAAAAAAAAAAACQgKhUJQKpUaN5pbNtrWGJPUAAAAAAAAAIAExSapR02T1NrpO6lzuZwBAAAAAAAAAJCgoHmpXDrM+L2FQoGFEwEAAAAAAAAAS6JZ9xGo5sPK5bIBAAAAAAAAAJA0rY1Yq9VscHDQrZXoO6l7om2t0UkNAAAAAAAAAEhQEARXWqOTeiTaxjJRKO3HqoW6DwAAAAAAAABAkkK7kEUH2Si1NgAAAAAAAAAAlohv+Ag1RK2FE5meBgAAAAAAAAAsCXVSWyOXdhPU2eaVoL+/P6zX6wYAAAAAAAAAQFJqtZoLp0ulkhugzvgblUol0IqKAAAAAAAAAAAkKOzv77fBwcEgEvruj55oWxttvWEYvmsAAAAAAAAAACQgCqavjC6Gom0k2sbcJHWxWPSrJ9JPDQAAAAAAAABITC6X00XYrPsIMvE78/m8AQAAAAAAAACQlHq97oaly+VyY+HEMKLej0KhYNVq1QAAAAAAAAAASJCvoW4tnBiUSiUCagAAAAAAAADAUgibmwuqs5qi9vdQ9wEAAAAAAAAAWCIum85ac5K6XC6HtVrNMLOxn5234dqojY9PWDjBOpMAAABpt2FTnwEAAACYu1wuF9Tr9aBYLAYDAwOt7o+eQqGwtlqt9oZh+K5hSvUonB4e+pkBAAAAHiE1AAAAMD/5fP7KKKgeivLokSiPHlcndahJ6iZGg6cxOjxGQA0AAAAAAAAAHRAF1C6LVh11NkqqAykUCobpjYyMGQAAAAAAAABgcer1ul800ZRPZ6J82orFYiu5xtTGf3beAAAAAAAAAACdoVxaNEntRqqtmVxj7ugfBAAASJdTJwYNAAAAwKK5Zg8tmiiZWEDNJDUAAAAAAAAAIGlhtVpt3dDCiX6CmklqAAAAAAAAAEDi+vv7WwsnZuJ35HI5gmoAAAAAAAAAQKIqlYrvpA58SE3VBwAAAAAAAABgKWhYOhgYGHC5dGuSWkXV9XqdsBoAAAAAAAAAkJhcLufrPlyzR9aaU9TNBRQBAAAAAAAAAEhMvV7X5qunw9bCiZVKhT5qAAAAAAAAAEDSQrtQQR1kwkipVHK38vm8AQAAAAAAAACQpP7+foty6VYndVAulzVFHdZqNQMAAAAAAAAAIGmDg4NBGIaWCYKglVgzSQ0AAAAAAAAASFqlUnGXWisxq6Q6uhJovNrfAQAAAAAAAABAEjQsrVaPgYEBtVEHbpJaWDgRAAAAAAAAAJC0KKB2Q9PmBqkD10ntFAoFAwAAAAAAAAAgafFWj1ZIXa1WQwMAAAAAAAAAYAkUi0V3mYntC5obAAAAAAAAAACJyOfzbmC6r69PndShC6l9Yh1hmhoAAAAAAAAAkLhyuexKqeOT1KFWVQQAAAAAAAAAIClhGLYWToyuN+o+NFatHbVazQAAAAAAAAAASEq9XneXvuEjq6Q6CBpV1ExSAwAAAAAAAACSlMvlrFKpuE3ZdKYZUAeFQsGYpAYAAAAAAAAAJKler/u1EUNf9+F2VKtVOqkBAAAAAAAAAEnT0HTQvB4qpPY3VFIdGAAAAAAAAAAAyQmDIAhLpVKj7sPv1H90hwEAAAAAAAAAkJxAfdTlctkNTmf9zv7+/jC6g0lqAAAAAAAAAECSwiiPtp07d7qhaTdJXSqVFFC7Ow0AAAAAAAAAgARpgrpcLrt2DxdSDw4OMkENAAAAAAAAAFgSzerpRt1H9B+6qAEAAAAAAAAAS8ZXT7cmqXW97RIAAAAAAAAAgKSExWLRXcn4KWoVVQMAAAAAAAAAkKRcLhcUCoVgYGDAVX5k1PkRXdHCiUE+n6f2AwAAAAAAAACQqGq16rPoUJPUViqVDAAAAAAAAACApNXr9VDNHsViUQsnmjqpw3K5bIVCwWq1mgEAAAAAAAAAkKAgtnBioJBaN4JqtWrGwokAAAAAAAAAgGSp6iMcGBhw1xVSq+4j1CR1804AAAAAAAAAAJISNDfTmokZv7c5SQ0AAAAAAAAAQJJCvwVBEGba7gAAAAAAAAAAIEnx2unGJHW5XPbj1XRSAwAAAAAAAACS5AemgzAMLT5Jbfl8nmlqAAAAAAAAAMCSySip1sKJ5jqqQyapAQAAAAAAAACJyeVyrRw6CALLqphaNwqFQsDiiQAAAAAAAACAJNXrdevv77etW7fawYMHXd1HUCwWmaAGAAAAAAAAACyJSqViAwMDbpK61UldrVZd5YcBAAAAAAAAAJAcn0OrgjpUSB0qsdZ4NQAAAAAAAAAASfKd1Gr4kExzscSwUqlQ+QEASKVareZ+zEiXAAAAAAAgWX6dRA1Pa5JaCydaqVSycrlsAID5eeihh1y4uZDn+Z9geeONN+yxxx6b8fH+sdu3b7fdu3fbtddeO+1jH330UXvrrbdat++//373PO/555+3ffv22Xzt2rXL7r777tbt9vPeu3ev3X777bMep/157cfV56nPZzr5fF7fcXWXel96fvz9zZX+3tOmz0oLNng69s6dO91x9fcjAAAAAADorFqt1hqYVj6djYJqXXHT1NpnAIA5U6C6kJB6quPM5X4FvAqZFaB+6lOfso0bN170WD8VHL890/1zFQ9y289LnnnmGReezyUwjj9vtuPOdN/LL7/sXlevee+9987ptRVKK8if7jV0PjquP/aDDz445ecMAAAAAAAWJp/Ph2vXrg2a6yQGmeYkdVgoFALdaQCArqcA9eGHH7aTJ09at1D4/fjjj9uloOD5gQcecKHyTPR5zWf6XY/T50wNCAAAAAAAnaNJ6mblR6Ah6mx0JSyXy26CWj86DQBYONVdzOXPUlVKTMdXWMQpJFUwHQ9Xdf2JJ55wk76LMde6jLlOKT/99NNuyrtT9HlO9XnotdrDZh9S33XXXVMeS4Fze7WHakq2bdvmXkfHPXjw4KQKLL2GwnfVpgAAAAAAgM7IZDIKqUOF1QqpA01SR1+QM0UNAIukwNP3Ry+UwuCpQlb1NiuEjU8Lv/76625Th/JCdbp7WX3XN9xww6LOKU5Bsqo8pjJVdYevHWl/fVWlxB+nX6d4N7inzm99s0GT2Z6+QaAAm2/mAgAAAADQGRMTExqcdltGOwYHB90kNT/ODADdTeF1e/h65MgR6zaaPF6Kv1MU6GsRxvaQ/dlnn73osQrz4xTOT/cNBR23fRFIhdwAAAAAAKAjwuYgmZum1iS1DQwMhPpCvROLfwEAkqVwNR64apq42+jvEwXFnaz9mIle58CBA60qj05MmOsbAvGgmilqAAAAAAA6w1duepqkDovFYqBAgS/AAQALpUA4Ppms2o/26eWk6O8vVa3EtU8+t/8dpwqPmRae1OM3btzY2vg7EgAAAACAzlIurYUTM9F/Ak1Sayd1HwDQ/donpxfbgd0pOo/27uilqv0Q9VDHtX9Oe/bsmXRb35zVQopaJHGmsBoAAAAAAHSWsgLlCFEubUEQWFb/UZdn9EV6wJQYACzOU0895Rb6m4kWQFzon7cKXhWqxrWHs/Ol48028azz1XnPRtPUqsh4/vnn3W0FwQqq77//fkuapp3j2kNqvQdVeMQXnvTnJ+qh1qY6FX2m/J0IAAAAAEBi1OyhdRLd8LQ6qUO/cKKmqg0AsGCqkJjNxz/+8RkDUH03sb2qQmHq4cOHLwqo9V3HxfQuy1wWBNTrzCWkFj1Ox/QhsT4ThdbtCxF22lwmyhVSSzyo9nS+8W8C6Bu4d95550XhNwAAAAAAWLSwuUngFk7s6+tzO/yCUwCAS0eh7lzCblmKCeWFUO3HQw891Pp7RaHwDTfc0BWBr4JqBdA6J02QT7dosMJqbXq8D7cBAAAAAEBHuGFpdVIfPHjQTVKbJqn7+/vD6Av10AAAC6a6iNlqImarA5kLHUMBtV5vsTSBPFt4PN/ea52Xgt2nn37a3dZ0+BNPPGEPPvigJWU+3dfx/mwF1Zr81jZV7YmfuiaoBgAAAACgM6LsJFS2obUSgyAIXUjdXDiRTmoAWCQFx0kvZKjjP/LIIx3rTPaTxZ22d+9e03dDffCrS9V+dCJYn8qRI0cm3Z7r1LbqUnxlioJuTbErmI5PWOu2Fl6k+gMAAAAAgMWLvv4OtFljojrINK8o9AjnM4UGAEiGAuNvfvObre0rX/nKpOlrhaftiwJ2K00rx89dYe/JkyctCe2fybZt22y+FPzr89c3Adq7vhW4AwAAAACAzlAeHX0NHkYs09znVlNkkhoAuo/+bNZUctzjjz9uy4GmvuM1GfpmaFLnvm/fvkm3d+3aNel1FZD7TRPdM9FnrsnpuOXyjQEAAAAAAJYBVU9rLagg0gqp3R2RwAAAXef222+/aJp6tqC1Wyhgb59K7rT2eg6F4+2vGQ+ptc3200MsJgwAAAAAQDKaw9I+iw5bIXWhUAiiL8hZOBEAutBU09RzCVq7xR/8wR90ZMHIdnr/Tz31VGtxQ699kUN9fvHQWs979tlnpz2uKknaJ7OvvfZaAwAAAAAAixfLM9zgtFs4sVgsugWnqPsAgO6l4LVcLrcmhvUHuqap2wPZ+XrjjTdMP1ozm+ibmQueiNbfL+qn/q//9b/afGmief/+/ZP2KUTWQoyq4GifeNbU+VQLQd5www2tRRxFIbQ+Qz1Wk9fa9Nlq4UTdF5/MlqSnwQEAAAAASBN1UquCWtezfme1WjUAQHdTIB3vdFZIrVB2Md9kVPCtbTYKaRcT1O7evdud63xrShQkP/bYY3N6rALnu+++e8r7NImuxQ/jQfVc37s+d4XYAAAAAACgI1w4rYUT2zup9aPYdFIDQBdTCDuf2opuk1TYqyoRhdOa1p6JakfmG7TrnBc7rQ4AAAAAACZxU9SDg4ONSeowDN2PeevHuKvVKp3UANDl7rzzzotqK/7dv/t3tnHjRut2vvbj4YcftsVQKN3b2+t6orXt2rVrTtPkesyDDz7opqdVIRL/HNuPr8nvPXv2UPMBAAAAAEDnuXB6YGDAXD7d3KHajzXRF+/5oaGhY4aLnDoxeNG+DZv6DACwfGkSXb3Wog5qhdPbt29fFoE/gEuDfxMCAAAAixcEwZXRhf5xPRqF1OPZ+J2xVRUBAFjxNFnNpDQAAAAAAJeMOqnDjMapdcMAAAAAAAAAAEhYPp/3ebRr+sioj7p5I5xLnycAAAAAAAAAAAtVq9VcKF0qlUINUWea+5VcB9R9AAAAAAAAAACS5Cepy+Vy4Oo+YvdR+QEAAAAAAAAAWFI+pA7aLgEAAAAAAAAA6Lhm3Ucri55U92EAAAAAAAAAACyBYrGoiyDTvOEDaio/AAAAAAAAAABJCwcGBpRHNzqpoxsGAAAAAAAAAMAScrUfmTAMrVQquQnqXC5H5QcAAAAAAAAAIEm+fjpUPp3VnsHBQbejXq8bAAAAAAAAAAAJCvr7+8OdO3daEASW1X8k2mlRSE0nNQAAAAAAAAAgUZVKxcrlshuezmqcOgqqQ+20xog1AAAAAAAAAABJamXRGU1SF4vFoLmTSWoAAAAAAAAAQGLy+bxyaLdpiDqjnQMDA6r7IKAGAAAAAAAAACSqVqu5y1KppJaPIOPvqFQqfpoaAAAAAAAAAICkuBy62UntJqndBHWhUDCj7gMAAAAAAAAAkLD+/n7VUOtqmLVmal2tVg0AAAAAAAAAgCTlcjk1e2jT0HTQPkkNAAAAAAAAAEBi6vW6Llr105nmFWo+AAAAAAAAAABLxWfSoV84UYsohvl83gAAAAAAAAAAWAphGAZZf71SqbTGqwEAAAAAAAAASEir2UPD05n4jnw+T+0HAAAAAAAAACAxuVwuPjAd+E5qt0Oj1QYAAAAAAAAAQEKaCyc6USYdZqItfieT1AAAAAAAAACARBUKBXepxRL9wonW39+vgJpJagAAAAAAAABAotRF7a9nohvuihZOpJMaAAAAAAAAALBEXB49qe6jVqsZAAAAAAAAAAAJCiuVii7dBHVrklry+bwBAAAAAAAAAJAgH0o3JqnjN2q1Gp3UAAAAAAAAAIDExGqnlUeH8bqPMJfLGQAAAAAAAAAASWnWTrcGpl3dR7FYdDvq9ToLJwIAAAAAAAAAkuQmqP11V/cxMDDg7wAAAAAAAAAAIElhf3+/u1TTR8YAAAAAAAAAAFhCUTitoelATR8upC6VShqtpuoDAAAAAAAAAJC4arXqM+lQIXU4ODjoUmuj8gMAAAAAAAAAkKygWffhMmmF1EGzk9pyuZwBAAAAAAAAAJCUfD7vWj2aDR+WUTG1V6/XDQAAAAAAAACApNRqNddJXS6XA+XTWe1UYv2jH/3I94AAHTU8PGwjIyM2OjpqY2NjbpuYmHCbl8lk3LZq1Spbs2aNZbNZd7l27VoDAAAAAAAAsKIEPovWwokupFYndbTTgE5Q+Hz27FkbGhpywXQ8jJ7pOdrGx8ddqO0puFZQ3dfXZ729ve42AAAAAAAAgOWvWCzawYMHLauk2pqrKBqwCAqXFUwroJ5LMD0XOo7G/7XJunXrbMOGDW7iGgAAAAAAAMDy1VwrMcyGKv9oJNV+A+ZF4bQm8eMT0Ek5d+6c2zRdvXnzZsJqAAAAAAAAYPmJD0wH2WZAPdWdwIw05Xzy5EkXGi81BeKHDx9mshoAAAAAAABYngKtlRjF02G2uSMsFAqahmWSGnOiYFoBdadqPRZzHgqsFVQrsAYAAAAAAADQ9ZRDh+Vy2bV7ZA2YB4XSp06dstOnT1u3GBsbs+PHj9vIyIjpmy0srggAAAAAAAB0NTV6BM1Ly4RhqFUUA3UKG3UfmIHC4LfffrurAuq4M2fO2JEjR9x5AgAAAAAAAOhOuVzON3q4oDrbrKQO2+4EJvEB9fj4uHUznec777xjW7ZsoacaAAAAAAAA6ELqoW7WT1sYhq26j8DfaUCb5RJQe0sVVFcqlRnvj77pY/l8fsbHqNf7mWeesd7eXvvUpz5ll0KtVrN6ve6u9/f3z+k5/r3P9fEAAAAAAABAXBRQuyxaQ9TxTuowCquYpMYkyy2g9pYiqH7sscfsjTfemPb+Uqlk995770yHcM/fv3+/u75nzx7bvn27LbWXX37ZHn/8cRc46z3NROf71FNP2VtvveVu6/EE1QAAAAAAAJiPeA6tOmofUvu6DwM8LZK4HANqT0H1u+++a1dddVWiiynq/xtNQk+1fzY7d+5027Zt2y5JQD1XmrbWxPfzzz9vAAAAAAAAQAe0Fk6cVPcBxJ06dWrZBtTe6Oio67bZuHGjJWX37t2zTkxPR1PIDz74oHU7TVsroFbwrvdbLpcNAAAAAAAAWIh8Ph+uXbtWg5sul85qnLrZRU1QjZazZ8/a6dOnbSU4c+aMrVmzxtatW2eXwoEDB+zpp592gfTdd9/t6jJUm/HII4+4LmhfsdFetaHJZYXD6q1WyK5J6zvvvHNS4P7QQw+5fuj777/fHXPfvn1u6lmPveuuu9yUdpwe881vftPVdeg4qiSZ609Q3H777e6YR44cIaQGAAAAAADAgmmxRA2WanOd1PqPaDXF4eFhFk6Eq8nQFPVKoqBXlRxJ1n5MR0G0X2jw0UcfbV1XmKz//6ZagFGPU0AtCpN1/gqWX3/9dTd57YNqPVebD7Q9hdEPP/ywC8J9jYju13E9HU+BeXuQPZVdu3a5QBsAAAAAAABYrCgvUw7tt8l1HyycCFkJNR/t1K+toHfz5s3WaQp7FRK30+RxPp9v3VaYrMBY1SCaqtZ9mkpupyllBcp6jB6rEFnPVaCs/ZrK1uR0+zkovNZjNbmthRAVjutYmt4WPV90XE1g69I/djbx9wEAAAAAAAAslrKpKPNyvdS+7sPfxyR1ymmK+ty5c7YS6X2p8qPTC4QqINbWTpPH7eGuwmX9DzgTVXbI3r17W1POeo6qNhRSa0p6qtfyj1Vn9MGDB11A7ae0Dx8+3LruQ3L/WB2PBREBAAAAAACwVKJ8Loi1CwTZWEDtdhhS7fjx47aSaUq80yG1pqNVh9Gu/XUUDM8WUIufrlZ3tA+s41QTov+J48ea7riappZ4pYiv/5juNoC5ee+o2aHvTdi5E2bjo7biXL7VbMt1gdsAAAAAAOgkZVaFQiHYtm2bDQwMtOo+QpVUG5PUqaYp6uHhYVvJ9P70P0Eng2q/SGGnqXe6fRLbd1HP9/x9WA2gM978Xui2lUwh/HtHQxs+a3b1jckF1UdeCe27T07Y8TdDGx00LNC26wP78F5tS7/2AgAAAAAswKQvql1IXSwWg6NHj4ZTLeCG9FhpiyVOR5PInZ6m7qRmH4/rtO7UYoX6rpSnapL4YolTVZUAmN47r638gDpO71VT1Ru2dj6oVjj9UrRh8RT2azt7zOymewiqAQAAAHQ31X1oaNoPTuurmFAj1WEYBiyOll5aWHCldlG3O3v2rHu/3coH0+qJVqDu6fYDDzxgjz76qM3Xjh07WsH8s88+29qvxSTVcw1g7hRSp00Sofyr+wiok6DPVGE1AAAAAHQz/1P/xWLR5dJaODFQL3UztUZKDQ6m52esFVArqL7sssusG2mCWoseasJZobTqRBRW+wUTp+q/ngtVkjz99NP2+uuv22c/+1k3sa3XUIUIP0UBzJ1qMNJm8IR13Kv7CFKTogn1bY/3GAAAAAB0MfdFoYanlU1n4juRXvGJ3TQYGhqybqWfaHjooYdcGK3wWJPOCqg1CX333XcvuP9679697rk6jo6rY+7evduF4gAwk7EEFoZk2jc5Jw7x2QIAAADoeuqUDDVJrcuguUPd1GuirTcMw3cNFzl14uJJ4w2b+myl+L//9/92dQVGp2UyGftX/+pfWbfTNw8UKCtY9osmdoJqPhSGU/EDzN/z/yWdFRW3/6fO9hz/yUfGDcn5z9/PGpKx0v9NCAAAACyFIAiujC70j2uNRY35r2DCQqGgyg9Gb1JoeHg4VQG16P2q+6abF1CUpILkTgbeAAAAAAAAwDwphw78jUwYNnJpOqnTa2RkxNJodDSBn18HAAAAAAAAMJsgfl2T1C6lbk5SG9JnfDydP3JNSA3gUrj6xsDWrp+8T53P6hFO46KMAAAAAIBUcs0e27Zts4MHD4bZQMsnWmOSOpfLBYbUSesk9djYmAHAUrt8q9mGrYENn72wT6H1jhsCe/N7oduwMKv7zHb/RsY2XR3Ymuj6yKDZoZcm7NV98/tM1/Sa3fr5Hvtx9NxD+/n1AAAAAIAEBKqebg5NB76TOqCTOr3SGtamdYIcQHf4zhMX1gJQSP2RT2TclPU7r4WTAmzMzforzD75eE90GdiJN0MXUG+7PrAP7tG+Cfvuk3Nfe0Fh94f3BnbmWNDxkFrn+dvReR56KbRvfzmdi3ACAAAAgNaJ0zpslUpFN8PWwolUfaRX2hZN9M6fP28A0A0USmuCWsGopqwVVIumrrffENi6TY3HnDhk7r7xUXPTwtt3NZ4Xrwnx+9862KgQSYvbPt8IqL9273k78krjfWsi+ref6LGb78m4aeqzx7rj83hfdJ46NwAAAABIq3q9rk2tHqGaPrKG1EtrSJ3W9w2gu2VXNy63XBe40Frh9PE3Q1sV7b/2lsA2XWP2g6+Hdu5kGAXaGRu+zqKQ+kL4qvsVdL+6L11/xm262lwI7QNqGRkye+aB826iurkEh+NrQT64p9FypjD/pScnoufP/Br69fjw3oybhtZj9Rm3V4novpvv6bGt1zceo6luHXu0Odl96+cz7nHbrm9MVB/4xoSbqgYAAACAlAmbm4VhaBn9xyavpggAAJaYpqZF4bOMjYT209fMvvtXE/bPL4YuDFXgqQBaQbbC61NROK3J6bjN0W1NVqetMuTMMXOT1Lt+MzNpfyNMDlsBtELk//DVHhdSazL97LsWBcqZZlXI9Me/6Z6M3fGFHnf96CuN19Lt+Ovp+fdEx77m5sA9RsG0XkfHVjDuzufdxmUY/dNL5zQ6ZAAAAACQVu4L2iAI3MKJViwWbWBgIGThRABYuPHBQXeZ7eszYDaayvXUSe1rPnx1x4k3tU207ncT1s2B21VrzFV+6DEbtjYCbj1PgXU2uu/t19L3kyLPffG8/fbjWbvtvoz9ym8EdvxQY9FETVbHJ6QVGitgfvKT4+7zk0a4nLXdUeA8VU90Yzo64yann/vihfs1CX3z7zT2K5BWaL2mL7C/+PfjrddUuK3nfvDmwIXlZ46dt2v2ZKMQO3TnDAAAAABpFuXSwcGDB4OsJqkVVEcCdYEgfTKZTCqrL/S+gU76l7/6K8tt2WJXfexjBsxGobQ3PtLolj788oXaBwXTCrLXb2wEz/5xcT99NbRrf00VIIGr/FDVh2hCOG0UCj8WhcO+ksMvmqgKkB/8TWgvf6Px99y2ogLs0EaGgkmT02ePhy5I/vaXLz72B29u/H3x4/2hC7i9Q/snotfpsfWbAzsX/XtKr6nHxENxLdj4WhRODw9R6QEAAAAA7QYGBi5MUje1ekCQLmkNqXt6emyhTv3gB3b02Wft/7nvPlv78z9/0f0/+cpX7Owbb9gvP/qopcXYuXP2oy9+ccr7Vq1bZx/6whemfe7wT39q+z/6Ubvm93/f3v/pT9tSePtv/9ad83Svd/zb37ZjL7ww5X3t70fnr19zPUf36ffHBz/3uSl/bwDed56Y+c/dj3wi43qoD/3jhAudx6KAeseuwK6+8UJIOjbaqPzY8qHAVYKo6sMvrJhWmlZ+dV9jQlmB9U339Nht9wV28lCjr9rXo/ze38/97wAfZt/1yNTP2XzNhdoOVbK0O9MlCzYCAAAAQBeZ1OjhF04Mm3dQ95FCq1atsvHxcUubbHbh64au+4VfcEHk/77/fvs3X//6pPsUWB768z+3HXffbWmiwPedv/s72/ArvzLvcFb1GHqOppCXyqnvf9/q0a/VfEPxc//8zxfd/p+f+IT7PaH3oJC6Gh1bgfUNf/mXVog+D2C+NEWtTYHzWy9f2L9u08WPfevl0IofC+wXbmlMXB9/M52B6NbrAxsZNDsZe/8KrEcHz9udUbi88ZqgWf0R2nD0uL/9w7l/c3akGUB/7d7zUy6uqCnpNb2N6++7gn9KAQAAAMAcTPridVJKl8vlDOmjkHp4eNjSZs2aNbZQCiI1Ja1wshqF1fEg8sd/9mcudNUkbRqp6mK+dRf6PPd861vWTTbfeqvb2v3Dnj225dd/vXVb36jQ437pkUfcr72C9l1ROK3fG4ei24W2b2IAc6FFD1XtoUqQy7eGbor6quuCixZJFHVR67E7bgjc806msOpDAbEWJ1QIrSA5ztdzjA42/v2jHuqtvxxE/xqaXMuhxQ7PHJv6+OqPFgXhqu/wVO+hBRGPvNKoG1FIruNo32ijot79mt36+Ywd+MaEHXqJiWoAAAAAiGk1e2TUSW3NCep6vc5XTym0evVqS6PFTFKLJoYVTv7wgQdaC+Zpulo1EvGAWvcpvHzpjjvc9k/R4zVtHaegU8+L07EUdM5GE8Ev/+7vuvBUj48fR9O82ufPT1RD4sN1T1PQ7fv8c3VcHV+3O0HH1LH0mejY/rh+f5zei/bP9LnpOara8J+vjttOz3v9j/+49Rkt9L3ofPRnZjyE1yT1himmpRVap/UbFeiMH+5rhKGq/bjpMxlbtymwwwcv/mtalR+auBZVf6SRJp21eKFC43u+2mO7fyOw6/YGdscXMi4gVvh8pBk0Kyxe09cIta/ZE7jt1vsyrsrjFz869RS0nqsaDy26uOs3My6s1mvc+aXo+Pf1tALp7/738+7Yd32pxz1G53DXIxkXVPsaED1WYfa2680dI96LDQAAAABpkc/nJ92Od1IjpdIaUnfife/8oz+ylz76UbdgngJJBantk8QKRX929qyrlVi1fr0df+EF17+syWFfi/HegQMXVV3U33nHBdUzUa2IQlm93jXR6yuw1jn4rmWFpwqYz0TBtJ/2VtCq456Iglq/T7e15Zrn44/repWj8/JBuILXxS4KqNdRaKz3rolk/761P35s9Vu/E53r+z/zmdY56HNTvYqqNfznNvh//o871o7o/eoxOnfxAbFeS78Gmm7XZzQW/Vro2Jre1jZXvsZF5xj/tdJnrP2Fj3xk0uP1mKWsL8Hy8YOvz20JCE38nnhzwlV8aJJaU9Ki7ul2fmHF+MKLafPcFydcAHzdXgXTF7qjFTA/98ULNR26/ewD5+2W6DEKk0Wh8YG/mbBvf3n6CpBnoufcfE/Gbrsv03bsC3VZB76h2o8Jdw4KwUUB+dfuHW+9vgJ1hdk3/U6PO88wmGgt6ggAAAAAaRGGoQ+l3WV8lJQp6pRSzUvaFk/U++1EvY1CSAWfPhhVAKrF/zwFwppc/rX9+1uB5VVRMKvQdKo+6/nwi/Xp9Xwgq2MrwNX5bL3zThfCKkRtD6S1T9PECtlF17VP56jjKqDWwoC+V1vH1bE0jTxbSK1jKWCPu+K221rBsui1FHjP9N4OP/XURZ+bgnIFzPHPTQG16jX8Y/R4fS7+M9F70fSznuNDaU3A65sLq6691uZqqilq0fvQr+eLN9/sXlvvTYE1iyaiU86dmP4+9Vav29ioBVGIPXjSUu2FP51wm69FOXM8bE05x/34pTDaxlv90eqUjj9OgfKffGTyWg3apyBcx1/b2zz+FAsivvTkhNv8sad6jMLsA99ovD6LKgIAAABIo3q97q+Gylt83YcwUp1iaZumXrt2rXWKJpZ9MKxp3vj0bDz8jVPQqbA4XsMxXwq/NTH9gc985qJjR/9727EXXnC3FZj6eguFv6qnUDitINmHyToX37+s4yrM3XTLLa3HaNP70Ou1B9BTnZefzPabJsnjNsyymODRZ59thdrt59A+XR4Pv0XhsM4zfj76TOJT0y5Mbpt8nok+N4XU7VPU/li3vPSSC8r12nqcAmsF6u31JECn3fDrGSt+LGOroj/Cv/91pnE9VWtoG53lj1gFxNpG5/FHsR7rnzeXY8/2GAAAAABIq/7+fl0EavpQ3UdYKpXCH/3oR1atVgmqU6q3tzdViyf29fVZJ/nQub2DWGHpVBO1PuhUeJtd4Lno2DpO+/NdjcX69a0wWZUamib29SEKdddfe21rmlohtg+AxYff6m+eSj0KXmeqsdBnsNhKkOHofBSmT3cO86Hj6BsJ7drD7JlMN0Udp5DfB+L6fDQpv9hpeWA2r/9DI5jWtPX4qAEAAAAAsFxMmtpR3UdQLpeVXM+tJBMr0voo1Dx16lRqKj8Uyi+F2TqPfy763BdjupBVtSP+tX03sgJphdS+O1mXuq3HKbBd36y+0G09/l//9V9Peez59DgvVDZ6DYXpvsZjMfRepvqc5jrlPNMU9XQU+KsuRdPU+gYA3dRIyntHDQAAAACAZc+t/lMsFoNKpRK0r6qI9FBH8/pFBqbLxbooANX7XQoKfk+8+OJFtR4KPRUM+yloXWriN262RRN9/Ua17XF63lj0evFKDVV3uJD6+9+3Tc1aD1+doXOJL/qnc3b1Gs2Jab/pRy/Go9dbipBa56NwWCF++znMd7FXhd2+7iSu/fOezkxT1DrGcx/4wEW/BuKD8Z9Lyf9XAAAAAAAA8+DyaF3RIoouqevr62OCGpaWb1Js2LDBlopbeDAKOFX7oNBVYbUW9VPwGa8G0cKCClJ137k33nD1HMebndLTUWiriokfPvCAe44ohP6n6LYC1fWxRQF1fBd6RwGvX0DRhdjRuWn/llgAq/3adNxqdDxRjYWmgg9E21LQ6yu414KE8fem2/ps5kNVH3qPep4+f21afDHWxz+t2aaoFYD7z0qP07EVTuu1/CKT2Q5Xy+DSy6arwh8AAAAAgKSExWJRA4lh1oCmXC7nFhRcyd3Uen+rVq2ypaKp45u/9S0XrmoxPbcvCi1VBRGfzFWYrSBYwaYo+LwmCrH97en80iOPuMfsv+OO1j4F11oYMU7H0+u2L1ioxx5/8cVWcO2pZkPH/V+/9VuTjnHDE0/YUtDnpi5nBe7x96ZzaH9vs/HP0TcAtLil6LP3PeIz8VPUU3Vae/o10HF1rq3zjz7r93/mM41vUmDFWbcpfTUbl2+1jlvdZ/NasBAAAAAAsKK46cGBgQF3QyPVQZRYZ6Mda6KQsrdWq71ruMipExd/Jb1h08qbkKzX6/ZOc8G9lWjHjh1LGlLH+YUM3cKG01Rm+IqI+VZq6HljzSqOTtZxJHXcS3UO/tcgiY5onaOCfU1XKwC/VJ8XknfqaGg/+Hq6fgDpw3sD23JdZ9dW/tq95+3IK/wgVxK2Xh/YJx/vMSQjLf8mBAAAAJIUBMEV0cVQqVQa+c53vnM+qylBjVQ37+SrxZTTNLU6m89NsyDfcqb3dakCaplLMLrQYDOpEPlShtNJnEOSCxjqHH04TUC9sm3YGtjVN5q9+b10/JV59Y2dD6jlpnsydiQKqtF5v7i3879eAAAAANBJqh2u1WpWLpcDrT+W0X+0cKLu1B3Axo0bl2xhwaWicHopu6iRTqoW0SQ1Vj4Ft5ouTqIGoxuod1vv7Vc+Ebj3moRt1wcuqEZn6TP98F4+VwAAAADdTYslxm/TSY2LKKDu7++3EydO2EqhgPpSTlEDWHk0XZzEhHGa3BwFqu+7wuyH+0I7SvXHgqnfe9PVgfs8Ff4DAAAAQLer1+vui0AtnHjw4MFGSN3X16edfHWIlvXr19vPfvYzO336tC13l112mav6AAB0H039fnivAQAAAABSSAsnqoLa/TxouVw2oJ2mj1evXm3LGTUfAAAAAAAAQHfJ5XLxHwMNMlo4sVQqtXYY0KTajyuvvNKy2eXZCqOAesuWLSuuXxsAAAAAAABYzur1uqsbbgq1cGI4ODgYFAqFIEqwDYhT0HvVVVctu6DaB9T0UAMAAAAAAABdJ4xdBkoeg4GBgbDtTqDFB9Vvv/22jY+PW7cjoAYAAAAAAAC6WlCpVNTqoa3RSV0sFoP+/v4wn88bMJXlMlGtDm0CagAAAAAAAKCrhXZhYDpwIbVWUQzDMKjVanRSY1oKfrdv326XXXaZdSOdl4J0AmoAAAAAAACgq/kc2oXVbuFEqVarBsxGixCq1HzTpk1dM1Wtc9q8ebM7LxZJBAAAAAAAALqfsjw1fOh6NggC3bCjR4+GlUqFTmrMyfr1600LbZ46dcrOnTtnl8q6dets48aNhNMAAAAAAADAMhJl0dbMo13dRzyYpu4Dc6ZaDU0w79ixw9auXWtLSa+n7mm9PgE1AAAAAAAAsKyEhULhwsKJ6qLu6+sLdWnAAvhFFRVWa7I5KQqj1TutcFqvp0luAAAAAAAAAMtLPp+3IAjCUqnkJqldqXC5XPb3U/eBBfOT1arfGBwctKGhIRseHraJiQlbKAXTq1evtt7eXlcxwtQ0AAAAAAAAsLzVarUg2pQhuknq7lj5DiuKgmQFytqkXq/b6OiojY+P28jIiI2NjbngOh5e6znaFHRrUzCtjWlpAAAAAAAAYGVR5hdtwcDAQGOSWgsnxu6k8gMd1/xNZwAAAAAAAACgodZoC4vFoguqfXdC0LyTug8AAAAAAAAAQGLy+byboI4Cat0MWgW/hUKBSWoAAAAAAAAAQKLUSW2x9RF9SB1Wq1UmqQEAAAAAAAAASXM5dKlUCiMupHbdHwYAAAAAAAAAQPKCQqEQlMtll0srpA76+vqYoAYAAAAAAAAALIVWHh0EgWU0Tz04OMgkNQAAAAAAAABgSVSr1VZQnQ0UVUfJtRZOjO4grAYAAAAAAAAALBlNUusy0MKJ+Xye2g8AAAAAAAAAQJImDUurk9qtotjf3x/WajUDAAAAAAAAACBJUR6tC7VRu7oPTU8H1pZeAwAAAAAAAACQhEqlEpRKpcbCidYIp6n5AAAAAAAAAAAkLpfLuctyuewGpzPN/UHbJQAAAAAAAAAASXGD06r7cAsnqpM6fgcAAAAAAAAAAEmIVVC7ug91Uk+63wAAAAAAAAAASEitVnMV1MVi0QYGBhp1H9EN30vNJDUAAAAAAAAAIEkuh1ZAreuu7qOvr8+NV+dyOSapAQAAAAAAAACJyefz8ZtBttn/IWG9XmeSGgAAAAAAAACQmGbdR4smqbXDbwAAAAAAAAAALIVQTR8Zf6u/v58pagAAAAAAAABA4gqFghuaDoLAsrrSXEWRSWokYnh42EZGRmx0dNTGxsbcNjEx4TYvk8m4bdWqVbZmzRrLZrPucu3atQYAAAAAAABgRVImHbqQOgqoNUXNJDU6QuHz2bNnbWhoyAXT8TB6pudoGx8fd6G2p+BaQXVfX5/19va62wAAAAAAAACWtbBarbZuaOFETVIHzUlqpqmxYAqXFUwroJ5LMD0XOk6tVnObrFu3zjZs2OAmrgEAAAAAAAAsS4HqpyuVirueVTG1guompqkxbwqn9Z2P+AR0Us6dO+c2TVdv3ryZsBoAAAAAAABYfrRgYiuUzsQCamGSGnOmKefjx4/b22+/vSQBdZxe7/Dhw+711XENAAAAAAAAYPmoVquh1kqMhK7gt1Qq+U5qJqkxJ5pm/slPfuIuL/V5vPPOO5f8PAAAAAAAAADMTS6Xi1dPB27hxMHBQfqoMSeanj516pSdPn3auoUmqTVRPTIyYoVCgcUVAQAAAAAAgC4WBMGkgels7L4wn88bMB2Fwe+++66Njo5aNzpz5oxbYHHLli10VQMAAAAAAABdbmBgwF1m4jcU8AFTUUCt7uluDag9nafqP+ipBgAAAAAAALpTlEMHhULBN3s0OqlVUB3bCUziA+rx8XFbDgiqAQAAAAAAgK4WauFEa1R+BK1J6minUfeBdsstoPYIqgEAAAAAAIDu1Fw4UXR5YZJaqPtAnBZJXI4Btec7tPU+AAAAAAAAAHSHer0exm62JqnD/v7+0ICYU6dOLduA2lOHtn5KAAAAAAAAAEDXiHdSWzYMQwuCwCqVCp3UaDl79qydPn3aVoIzZ87YmjVrbN26ddZJ0f8zM96fy+VmrdA5efKkPfPMM9bb22uf+tSn7FLQT1BE371y16NvVs3p8Xrvek70h4lt3LjRAAAAAAAAgLmKMrPWwLTy6WwUULtyaoVN1WqVoBquJkNT1CuJwmAFwZlMxjrlscceszfeeGPa+0ulkt17770zHcI9f//+/e76nj17bPv27bbUXn75ZXv88cddQK33NBMF6vv27WuF2qJz/oM/+APCagAAAAAAAMxJFEwHyqVVQ60B6qw1y6mblQhUfmBF1Hy0Uy+1gurNmzdbp2liWgH4VPtns3PnTrdt27btkgTU86GAWpvonPX+3nrrLbc9/PDD9sgjj7D4KgAAAAAAAGalTmrlSAMDA41JamsG05qkju5kkjrlNEV97tw5W4n0vlT5MZfweD52794968T0dDS9/OCDD1q3U8WHD6jvvvtuu/3229111X7cf//97lIT4X4/AAAAAAAAMBNfPx2fpHbaVlVECh0/ftxWMk2Jdzqkns2BAwfs6aefdoG0At6nnnrK1Xxo8li1Gb5io71qQ6Gwqjg0Aa4qDU1a33nnnZNqNR566KFWUKxjqopDgbIee9ddd7mJ5zg95pvf/KabftZxVEkyl8/Dn4OolsTTe1JIXy6X3TEBAAAAAACAeVAeHWabN4JqtRryo/rppinq4eFhW8n0/hQML2VQrdfziyw++uijresKk5uLll70HD1OAbUoHFZIrBD49ddfd5PXPjDWc7X5QNtTGO0rOHyNiO7XcT0dT4F5e5A9lR07dthf/MVfTHmfzkm6va4EAAAAAAAA3SHK5gItnrh169bg4MGDQVadH37xRIVmSK+VtljidPT7vJMhtcJeX4URp+qL+Dd+FCYryFU1iCaQdd+RI0cuep6mkhUo6zF6rEJkPVeBsvZrKluT0+3noPBaj9XkthZCVDiuY2l6W/R80XE1ga1L/9iFev7559256fPctWuXAWny3lGzQ9+bsHMnzMZHbcW5fKvZlusCtyXpyCuhfffJCTv+Zmijg4YF2nZ9YB/eq61zCwQDAAAAQFKUW6l6WrmSsums/qMf+Y/CrFAJtiGVtLDgSu2ibnf27FnbsGGDZTKd+ULeLx7YTv9ftf90gsJlhcMzUWWH7N27tzXlrOeovkMhtaakp3ot/1jVb0TfgXIBtZ/SPnz4cOu6D8n9Y3U8hc3zpeP74PvjH//4rO8LWEne/F7otpVMIfx7R0MbPmt29Y3J/PNA4fRL0YbFU9iv7ewxs5vuIagGAAAAsCz4L6zdJHUgCpiYpE6vwcH0jK8pkFdQfdlll1knaDp6qini9mlt/T82lyDXT1erO9oH1nH6/1SBc/xY0x1X35WSeKVIey3HQmo6FFD7CWyF5yyYiDR557WVH1DH6b1qqnrD1s4G1a/uI6BOgj7TrdcHbrIaAAAAALqVcjPlVsVi0QYGBsx3UrvVFJd6QTl0j7R9g2JoaKijIbWC2k5T73T7JLbvop7v/6s+rO6E9oA6ifcOdDOF1GmjoHrDJzodUrNWc1I0ob7t8R4DAAAAgG4VZVXui8IooJ60cKK/05BOafu1Hx3t3gJZTUVr8lnTyarx6IRt27a1rquaJL5Y4lRVJdMhoAYaNRhpM3jCOk7VFEjGiUN8tgAAAAC6XhDfMkEQKAjzX83wVU0KDQ8PuwqMNNH77dZg3gfT6omOT7jr9gMPPGCPPvqozdeOHTta09fPPvtsa//Jkyddz/VcEFAD6TW2AheGXMlGhgwAAAAAul1YKBRa190kdRQ+UVyYYiMjI5ZGmqbuxoobTVArENaEs0Jp1YkorPYLJk7Vfz0XCpWffvppe/311+2zn/2sm9jWa6hCJN5ZPRW9vg+o5ZlnnnFbnI732GOPGQAAAAAAADATVdxWq1Vd1dB04JZ/V0E10mt8fNzSqFsrP/Q/6UMPPeTCaIXHmnRWQK1A/e67717wBPPevXvdc3UcHVfH3L1795wWPaQKCAAAAAAAAJ1Sq9U0NO0C6jAMW70fmqheE2290c53DRc5dWLwon0bNvXZSvD222+7yo+0Wbt2rV111VXWzTTBrEBZwbJfNLETVPOhMLx9YUYAs3v+v6SrHsm7/T9lrJP+5CPp/AbpUvnP388akrGS/00IAAAALJUgCK6MLvSPa02Rjk36CiYKrNL5lXfKjY2NWRothwnypILkTgbeAObn6hsDW7t+8j51PmuxuzQuythJq6OccPdvZGzT1YGtia6PRP/cOfTShL26b35LbqzpNbv18z324+i5h/azXAcAAAAAJCBUdWylUgkjk+s+arVaZ8eksCykbdFE7/z58wYAS+3yrWZbrgtsw9YL244bAvvIJzIuwMbCrL/C7D98tcduvidj77uysW/b9YHd8YUeu+me+f3zRmH3h/cGLuxO4jw/+/c9UQjOP7kAAAAApFoQBdSu5SPSWDhxYGCAMaEUS2tIndb3DaA7fOeJC38GabLah9TvvBba8FnDPN32+Z4oAA7sa/eetyOvNP5Zo4no336iEVxrmvrsse745877ovPUuQEAAABAWuXz+bBWq/kv0gJf9+GLqgmrAQBYYgql3/xe6KZ3NVmtoFo0db39hsDWbWo85sQhc/eNj5qb8t2+q/G8eE2I3//WwUaFSFpsutpcCO0DahkZMnvmgfNuojr+TxxfC/LBPY1JaX1OLz05ET1/5tfQr8+H92bcNLQe++q+i6tEdN/N9/TY1usbjznxZuPYo4ONyW4/Qb0tuv+3H++xA9+YsEMv8c8vAAAAAOmiddhU97F161Y3QK2vlMJSqdRKrQ0AAFwy2dWNS1WCaLp6/aYgCjobIfW1twRW/Fjjr+pzJ0MXaOtxcZuuMbf/3Il0BZ9njpmbpN71m5NrNBphctgKoH0tiEJqhf5n37UoUM7YJx/vcfdNR5Uhqg6Ro680Xku346+n598THfuamwP3GAXTeh0de3VzXb2zzeWptXa1zml0yAAAAAAglSqVir/qJqmDcrnsdzDKk0KZTCaV1Rd63wDQLTQ1LQqfZWwktJ++FtjrL064yWlZtaYxKZ1d3agEOXU0bPYmX/jre3N0W5PVaasMee6L5+23H8/abfdl7Fd+I7DjhxqLJmqyOj4hrdBYAfOTnxx34b80wuWs7Y4C529/+eK/DxvT0Rk3Of3cFy/cr0nom3+nsV+BtELrNX2B/cW/H2+9psJtPfeDUXCtsPzMsfN2zZ5sFGKH7pwBAAAAIK0KhUIwMDCgq2Gr7qO5miKT1CmU1pC6p6fHAOBSUXWEp05qX/PhqzsUoJ54c6J1v5uwbmbRCqsVXOsxG7Y2Am49zwXY0X1vv5a+P9MVCj8WhcO+kkPVGh/c0+MqQH7wN6G9/I3GZ7KtqAA7tJGhYNLk9NnjoQuSv/3li4/9wZsb39T88f7QBdzeof0T0ev02PrNgZ0LQ/eaekw8FP/ukxP2WhRODw8xBwAAAAAAcdVq1dTwoQFqH1KHCqhzuZwhfVatWmXj4+OWNtls1gDgUlEo7Y2PNLqlD798IchUMK3Adf3GRvDsHxf301dDu/bXAtt0jaanQ1f1IaqxSCtNK7+6rzGhrM/vpnt67Lb7Ajt5qNFX3Zg8N/u9v5/7Nyp9mH3XI1M/Z/M1F2o71EHd7kyXLNgIAAAAAF1GAbX7Ik0pnb5ycj8rXK/XDemjkHp4eNjSZs2aNQYspdOnT9tll11mgHzniZmnndVHvWq12aF/nHCh81gUUO/YFdjVN14It8dGG5UfWz4U2D+/GLqqD7+wYtpsvT6wkUGzk7GQWIH16OB5uzMKlzdGQX6j+iO04ehxf/uHc582H2kG0F+79/yUiytqSnpNb+P6+67gh9IAAAAAYDa5XC7I5/O+lzrQz6/6r6Z0B6M+KbR69WpLIyapsdT+23/7bwbMhaaotR2PAte3Xm70Syt4Xrfp4se+9XLo6j9+4ZbGxPXxN9P3V7kCYi1OeNvnL15rwNdzjA42PhdVpChIDi10E85+23i12c/1Tn189UeLgvD4czRhvbE5va7wWiG5Fk30iySKJrfVXa39AAAAAIAGDUuHYegGpyOtSeqwUCi4HhCkT1pD6sW+bxW7/+QnP5nyvmKxaO9///unfe5zzz1nb7zxhn3uc59bkoluTcp/61vfsltuuYVJ3g555plnpr1v586ddu2117Zu6/fK66+/7n4dFFTr94c2YDoulB5pVIJcvjV0U9RXXRe0qiri1EWtx+64IXDPO5nCqg9NOmvxQnVR3/PVHnd9ONq3/fpGP/WZKEA+0gyaD3xjIgqMe1yo/cKfNnuqfzlwiyYe+JsJ+/aXLw759VzVeGjRRb3WiUOaWm8siqhua3Vhy3f/+3m79b4eu+tLPfbSkxMuxN4TPWZ1b9CqAdECiwqzt12vRRwD+/FL4ZTT2QAAAACw0kVZdFgqlSwIAhdSt77i1Yg10kdd5GlbPFHvd7Ed7AqoFTwqkJyvyy+/3IXFS1U5MjIy4oJSBaOE1MnS56zP2IfU+oaE9t1www3u94zu075//Md/tN///d83YDo/jILWa2/JuNoPURh9+GDowug4VX6o4mP7rsBVf6TVc1+ccAHwdVEofevnL3RHK2B+7osXajp0+9kHztstn2+EyaLQuBFQT//34DPRc26OAufb7su0HfvCmg4HvqHajwl3DgrBRQH51+4db72+Qm6F2Tf9To87zzCYaC3qCAAAAAAp4r6AVSe1n6RWcBUoREF6aao4Tb3Ua9eutU7Qce666y6br3/7b/+t27B8TfXrrj9H/TcDRKG0D6OvvPJK900NPU8T7V/60pcW/E0OLG8/+Lr7AaZZH6daihNvTriKD01Sa0pa1D3dzi+sGF94MY00Ga3NT5yfOR664Lqdppd//NJ4qz9andLxxylQ/pOPTF5QWPsUhOv4a3ubx59iQURNUGvzx57qMQqzD3yj8fosqggAAAAgpYL+/n7XSe0nqcMoVKHuI+V6e3tTFVL39fXZUlBgqVoPBdIvvvii2/cf/+N/bO3/5Cc/2XqsFtXTY/y0bXslhA88P/rRj7pJ3GPHjrnHKfRsn472YakmqK+44gq78cYb53K67hz0GgpPFcDruXfccUdr4vurX/2qC1Xj56V97WG93od+P+m57cf1U8bt5/Tuu++6x0z3/tupNkOfa3vIq/NR1Yo/vo73ve99r/V5TfW56nz16xKnOg8dZz61HDqOXtf/euh9iwLqON2v12OqHXNx7sT096m3et3GRi2IQuzBkwazVrXGbBYSECvM9v3Wiz02ATUAAACAtIqvjahJar9wYqCAWqsqGlJp/fr1rgIjLRTKLwWFlP/yL//iAk8Flb4CQvsVysYf92d/9mfuUlO2epwCz3jvcfxYCk8V0PrnKYz2/PP8Y2Sm/uT48RX8KrTVOVx//fXuevz4+s5W/Kcu9ByF7Qqf43zlRfy4er/+vSmMji8i6B8j/jEK4hUuz0THidP56nw+8IEPuNu6ruMqRNdxFbrruP4bBv61p+oW1z4fMs+F/1ziE/L+M4i/nqdfH0JqLNYNv56x4scytmq12fe/TmUEAAAAAGB50KKJmqKW1iR1qVQKy+WyVlVkpCelFFArqJ5PKLdcrVu3rmOBvKaF2wNITR3Hp4QV8GqBxJkCSYXImgiOTyMr1PaL7PlFGHUsTScrbBXdp9qIgwcPutf009iatvbnoMcomI2H4lOJT3r7yWmdk0JqhcXx8FjnoccoyNV5vvfee+66zlMTyzoPHxTruAqJ45PKOq7O2z/Hh9zx96/Pa6ZaFr0vfW7+XERBsT4b//noXPU4f1xd12vrc9XrzrS45XzpfbZ3fuv4+tx0n85Nv18UnGv/UvWRY2V7/R8awbSmrcdHDQAAAACAZSHKod2lshS1fLhJagXUTUxSp1haFs7csGGDdYoCUgWt8U0hbZxCy9kmZn1Yq3DXb/558XBZwaYPYEUhrjY/6ewf216loUX7ZqOgWFPA8fDU12P4SWOF1Hot/zoKXLVPgbSui6a99Tx/njqujhF/b6Jw2z9H13VcheH+foXJM4XIel2dqwL6+OcYr/nQsdo/Cz/BPFtoPx9+inqqahCF1H/4h3/oPlu9R9WRKPifaroamC8tpqiNgBoAAAAAsMy4YWkF1LrMqvMj0Ex1dEe8CwTpk8vlXOC5krup9f5WrVplneK7hRfDh7LTVXLEqzxmW/DR9y63m8vUrl5nquNrnz9HXVfI66eBFUj7YNsHzv4+0e8lHVcTzdra+SA7PnH8rW99q1WNooB5unPXuSgU1uvpcT6Ubg+246G+p8+o/ZsJizHVFHX76+kcVU/iO8n1nE5PcwMAAAAAACwTQaFQCD70oQ+ZBqizjXy6cUetVmOSOuU0ZfzOO+/YSrV582brNj6EVSXFVIHlbMF0nMLQqb7JEA+6ZzuP2e7zndK69KG1gmCFy77f2Qf3/tzn8t4UUmvT8+OLKM70TQBNW+txen8KfnVOPij2x/ZT6XHTBfILMdMU9VR0LnqfCtf1XELq5Se7msnlTljd11iEEAAAAACQSmG1WlUFtVsv0RXzqpNal5qkRbrp94A6m1civa9OTlF3isJSBZfxig+/ad98uov1HF9BEjeXagtNL8cXRfS0T/d5CoZ1Xqrm8AGr3oMeo2lpnW88eNV1nc9U782LL16ox2vqWBPaUy1oGOe7nVX5oVoRnZv3vve9z93XvqijX7Ryx44d7rb/fONBfryWZDYzTVFrOl7VHlPRNxM6FZRjaa3bZKlz+VbruM1X833xpGy9ns8WAAAAQNfzX7golw5bq8cVCgUWToSzcePGji0s2C0UTneyi7rTFMoq7FTwq7DUV2Rogb/5LGbp6yMUjvo6CwW9mjaejZ9i1nnEz0Fhqu7zfMgcr/UQhb7t+0Rhs4Lumd6b7ldXsz9nhcivvPLKlFUd7fxn5+s/PN329/mgWsf9H//jf7jz94G2D7p1Pnr/eg96zFy+OTDbFLX26z21/3roveq967PB8nP1jekLALdc1/n3fNM9K+vvmW7yi3sJqQEAAAAsD6VSSRdBVv+NLZwIuIC6v7/fTpw4YSuFAupunKL2FFYqDFaYrNoMUUiqmozZFl1sp+foGH6C1/dmf+lLX5rxeQpr9VyFun5RP//c9nPwlR/xQNpXb8Snmf3+O+64w4XU8ff20Y9+tBVC6/0rtI1PHfvzmY2CYJ1v++uKD9cVOseP+8lPfrJ1W2G2zk/HUFCtc/O3ZzNbF3X8M/WBtl5DU+dTfa5YHjZsDaKg2uzN76Xj+7oK5ZMIqbddH7ig+rtPThg6R5/ph/fyDQAAAAAA3U1rI9ZqNRscHHRrJbrOj2jriTb93HlvGIaz9wKk0KkTFxdnbtjUZytZpVKZ1xRvt1IQqNB9ufCf+WIDTE0s+0qJ+VSGdPIc5ntcf84zPWaqYyqAV+g7Xb/zXD+LqfqrO8WH8J/73OcIp1eId14L3fbeUVtx1LutWhMF1Arlk/Tqvgn74b7Qjr7CD3MtlPq9N10d2M1RQL2Nqo/EpfHfhAAAAECnBUGgbtmhaFP/6lg2CqXtV3/1V/00NV8hokXTx/V63UZHl+8KYd1e8zGVTgWYCmPnG053+hzme9yFnLOmlHXcmRYgnOtxkwyP/YKJBNQrh6aLk5gwThtN/X54rwEAAAAA0iW0C1l0kI1SawOmotoP1RK8/fbbNj4+bsuNAuotW7asuH5tNKg+Q13PCp81Rb0cqCMbAAAAAAAA5hs+Qg1R+4Ra3dSq+8hHO48ZLpLmH+0cGxtbdkG1D6i7uYcai6P6DG36RspCJ8YBAJgv6j4AAACAxevt7b2iVqup7mM0yqPHNWLqUuv+/v4wn88b0E5B71VXXWXZbNaWAwLqdPAVHwTUAAAAAAAAy0sUULvh6VKp5Co/Mv5GpVIJtKIiMJXlElSvXr2agBoAAAAAAADobmF/f78NDg4GkdB3f/RYo+6jNwzDdw0X4Uc7GyYmJuzUqVOuZqHbaLJWiyTSQQ0AAJLCvwkBAACAxYuC6SujC9V9jETbmEvzisWi76YODZiBAmB9l2PTpk1dM1Wtc9q8ebM7LwJqAAAAAAAAoLvlcjldhM26j2BSykgnNeZq/fr17jeTpqrPnTtnl8q6dets48aNhNMAAAAAAADAMlGv192wdLlcdsPT2TCi3o9CoWDVatWAuVLvsyaYVbFx/PhxGx4etqWydu1a97rN77oAAAAAAAAAWD58DbULqzVJHZRKJaXWBiyEX1RxbGws0clqTUtrglsT/4TTAAAAAAAAwLIVNjcXVGc1Re3voe4Di+Enq1W/MTg4aENDQ266WostLpSC6dWrV1tvb68LqKn1AAAAAAAAAFaMiyapw1qtZsBi+YlnbVKv1210dNTGx8dtZGTETVwruI6H13qONgXd2hRMa2NiGgAAAAAAAFhZoswviDLDoFgsBgMDA63uj55CobC2Wq32hmH4ruEip04MXrRvw6Y+AwAAQHrwb0IAAABg8fL5/JVRUD0U5dEjUR49ru6EUJPUTaEBAAAAAAAAAJCgKKB2WbTqqLNRUh1IoVAwAAAAAAAAAACSVK/X/aKJpnw6E+XTViwWW8k1AAAAAAAAAABJUy4tmqR2I9XWTK4BAAAAAAAAAEiQa/bQoomSiQXUTFIDAAAAAAAAAJIWVqvV1g0tnOgnqJmkBgAAAAAAAAAkrr+/v7VwYiZ+Ry6XI6gGAAAAAAAAACSqUqn4TurAh9RUfQAAAAAAAAAAloKGpYOBgQGXS7cmqVVUXa/XCasBAAAAAAAAAInJ5XK+7sM1e2StOUXdXEARAAAAAAAAAIDE1Ot1bb56OmwtnFipVOijBgAAAAAAAAAkLbQLFdRBJoyUSiV3K5/PGwAAAAAAAAAAServ77col251UgflcllT1GGtVjMAAAAAAAAAAJI2ODgYhGFomSAIWok1k9QAAAAAAAAAgKRVKhV3qbUSs0qqoyuBxqv9HQAAAAAAAAAAJEHD0mr1GBgYUBt14CaphYUTAQAAAAAAAABJiwJqNzRtbpA6cJ3UTqFQMAAAAAAAAAAAkhZv9WiF1NVqNTQAAAAAAAAAAJZAsVh0l5nYvqC5AQAAAAAAAACQiHw+7wam+/r61EkdZnVDifXAwICuMk2NjhseHraRkREbHR21sbExt01MTLjNy2Qyblu1apWtWbPGstmsu1y7dq0BAAAAAAAAWHnK5bIrpc7G9oVaVRFYLIXPZ8+etaGhIRdMx8PomZ6jbXx83IXanoJrBdXRd1Wst7fX3QYAAAAAAACwfIVh6BZOrFQqQXTdXEitseroIqjVagYslMJlBdMKqOcSTM+FjqPfl/735rp162zDhg1u4hoAAAAAAADA8lOv11X50eqkziqpDoJGFTWT1FgIhdPVanXSBHRSzp075zZNV2/evJmwGgAAAAAAAFhmcrmcpqjdpmw62wyog0Kh4IJGYK405Xzy5EkXGi81BeKHDx9mshoAAAAAAABYZur1ul8bMfR1H25HFFDTSY05UzCtgLpTtR6LOQ8F1gqqFVgDAAAAAAAA6Hoamg6aQ9OhQurA36HCagNmoFD61KlTdvr0aesWY2Njdvz4cRsZGTH9RACLKwIAAAAAAABdLQyCICyVSo26D79T/9EdBkxDYfC7775ro6Oj1o3OnDnjFljcsmUL9R8AAAAAAABA9wrUR10ul93gtB85Dfr7+8Mo4GOSGlNSQP322293bUDt6TzfeecddwkAAAAAAACgK4VRHm2lUskNTbuQWjeUXFtzohqI8wH1+Pi4LQcE1QAAAAAAAEB30wR1uVx27R4upB4cHGSCGlNabgG1R1ANAAAAAAAAdK9m9bSr+8hG/6GLGlPSIonLMaD2fIf2VVddxWKKAAAAAAAAQBepVCpucFrZtF84MWi7BOzUqVPLNqD21KFdrVZt48aN1mnNipxp5XI5y+fzMz7m5MmT9swzz1hvb6996lOfsktBi03W63V3XV1Ac/HWW2+1nnPttdcaAAAAAAAAME9hsVi0gYEBy/opaoVTs4VuSI+zZ8/a6dOnbSU4c+aMrVmzxtatW2ed9Nhjj9kbb7wx7f2lUsnuvffemQ7hnr9//353fc+ePbZ9+3Zbai+//LI9/vjj7s8AvafZHqvH+IBa9Ly77rrLvV8AAAAAAABgNrlcLtAWBdSu8kN1H4GCao1X5/N5aj/gajI0Rb2SaGJZ08pJ1H5oYlrHnmr/bHbu3Om2bdu2XZKAej5UZK8wWzSZrgnq119/3X1zS/s1Nb5r1y4DAAAAAAAAZlOtVn0WHWqS2k1AKoACZCXUfLRTv7aC6s2bN1un7d69e9aJ6eloCvnBBx+05WDfvn3usn1C/OGHH3Zh9fPPP09IDQAAAAAAgFnV6/VQudjWrVuDgwcPmjqpQwXUhULBdfci3TRFfe7cOVuJ9L5U+TGXCedOOnDggD399NMukL777rvtqaeecjUfjzzyiKvN8BUb7VUb6qpWvYbCdU0ua9L6zjvvnNSv/dBDD7lJ5vvvv98dU0GyOqb1WFVwaEo7To/55je/6TqldRwFznP9PPbu3esu24+pmhKF1DpPAAAAAAAAYA4CNXtEIbUWTgwUUmuxxKAZULNwYsodP37cVjJNiS91SK0g2ve9P/roo63rCpP1kwxTdcHrcQqoRWGyAmAFywqDNXntg2o9V5sPtD2F0ZpwVhDua0R0v47r6XgKzNtD5+lM1zntX3euxwEAAAAAAEDqqeoj1KKJulRIrfAp/NGPfhTvAUEKaYp6eHjYVjK9P4XGnQyqFfYqJG53++23u55mT2GyAmNVZWiqWvcdOXLkoufpJxsU/OoxeqzCXz1XgbL2aypbk9Pt56DwWo/V5LY6ovU+dSxNb4ueLzquJrB16R87XzqWQnadlwJxva4mtwEAAAAAAIA5CJqbac3ErN9L1QdW2mKJ01G42umQWls7TR7HQ2pRuKxweCa++1n1Gn46Wc9RCKyQWqHwVK/lH6uObHX5KKD2U9qHDx9uXfchuX+sjqc+6fnQefjj6T2q8mO29wUAAAAAAAA0hX4LgiDMtt2BlNLCgiu1i7rd2bNnbcOGDZbJZKwTNB091YKB7UG4Qty5BLl+ulrd0T6wjvMTzPFjTXdcTVNLvFLE139Md3su/MKJvmpE09j79+9fNotAAgAAAAAA4JKK1043JqnL5bIfr6aTOqUGBwctLRTIK6i+7LLLrBP8IoWdpt7p9kls30U930lwH1Z3Srx/WgG5+q/Vl62NbmoAAAAAAADMwg9MB2EYWnySWoEY09QppencNBkaGupYSN1pCn01oaxO6+kWK5yvbdu2ta6rmiQeJE9VVdJOCzdqUlrau7bjgflUi0ACAAAAAAAAM8koqdbCieY6qkMmqVOq05O23W50dNS6lQ+m1RMd/+aBbj/wwAP26KOP2nzt2LGjFSY/++yzrf0Kn9UvPRuF0qr10BZ/vs7Ph9fCFDUAAAAAAABmE+VUrRw6CALLqphaNwqFQsDiiek0PDzsKjDSRO9XwXwnF1DsFE0qa9FDTTgrlFadiMJgv2DiVP3Xc6FKkqefftpVcnz2s591E9t6DVWIzDYBrZBaz1dIrZ7s73znO+55Crn9Nzh03iyeCAAAAAAAgNkoT1KOtHXrVjt48KCr+wiKxWLgF2tD+oyMjFgaaZq6G0NqBcIPPfSQPfXUU27K2QfIOtePf/zjLgxeiL1797o/ABQy65jaNLV97bXXuoUPZ6OQWn94KKjWc31NyGLPCwAAAAAAAOnj8ylNUrvFEqOQOjswMLA6ut4bhuExw0VOnbh4YcENm/psJdBvhtOnT1varFu3zjZv3mzdTBPU+vVREOwXTewETUArDG9fmHE+5+WrSDp5XgAAdLuV/G9CAAAAYKlEwfQV0cVQtI1EefS4JqnDKKBuLdaG9EnrJPXY2Jh1u8UEyTNZbLCc1HkBy8l7R80OfW/Czp0wG+/emvsFu3yr2ZbrArcl5cgroX33yQk7/mZoo4OGBdp2fWAf3qstYwAAAACwHKiTWj/xr4YPyWqxRPVSRwE1iyam1HIIa5MwPj5uALAQb34vdNtKphD+vaOhDZ81u/rGzv8TQeH0S0+maz2EpCjs13b2mNlN9xBUAwAAAOh+fp1EDU9H+XSYUeeHemmRXmlbNNE7f/68AcB8vfPayg+o4/ReTx3t7Pt9dR8BdRL0mSqsBgAAAIBuV6vVWtNQyqczUVBt5XJZO/VVDdPUKZTWkDqt7xvA4iikTptOh/Kv7iNITcp3Cf8BAAAALAP5fD4sFAqtTNpPUrudutMAAMC0VIORNoMnrKOY9k3OiUN8tgAAAAC6nyapm5UfgYao3cKJzUlqFkIDAAAXGVuBC0OuVCNDBgAAAADLQiaTUUitBRNDra4TaJLaGqPVSKHoN4SlUVrfNwAAAAAAAHCpTUxMaHDabS6lGxwcdJPUtVrNkD5pDWt7enoMAAAAAAAAwJILK5WKu9Tm0smBgYGwv7/fkE6rVq2yNMpmswZ00vjgoNsAAAAAAAAwvfbaaddJXSwWgyioppM6pRRSDw8PW9qsWbPGgE76l7/6K8tt2WJXfexjBkzn6hsDW7t+8j51PmvBuzQuytgpq/vMdv9GxjZdHdia6PpI9P2iQy9N2Kv75tdmtqbX7NbP99iPo+ce2k8TGgAAAAAkSbn0wYMHLRuGoV9JkbqPlFq9erWl0WImqU/94Ad29Nln7f+57z5b+/M/f9H9P/nKV+zsG2/YLz/6qKXF2Llz9qMvfnHK+1atW2cf+sIXpn3u8E9/avs/+lG75vd/397/6U/bUnj7b//WnfN0r3f829+2Yy+8MOV97e9H569fcz1H9+n3xwc/97kpf28Al28127A1sOGzF/YptN5xQ2Bvfi90G+Zn/RVmn3y8J7oM7MSboQuot10f2Af3aN+EfffJiTkfS2H3h/cGduZY0PGQWuf529F5HnoptG9/ee7nBAAAAAArjXJoNXtocDrKpi2j/5RKJd0XMEmdTmkNqRfzvtf9wi+4IPJ/33//RfcpsDz053/uJmrTRIHvO3/3d+79z1e2r88Fukv5mZ36/vddqDxf5/75n92vffy2AnZ9U0LvQVs1Orb2VWOPA9p954mJSZtC66mmrDG72z7fCKi/du95e/KT593lY/9+3AXWN9+Tcfd1i/dF57Kmt3vOBwAAAAAukaBSqeiLIzcd5Oo+/MKJmqo2pE4ul3OLJ05MpGeqS+9X73uhNC2rKen/+YlPuCCy8Cu/0rrvx3/2Zy501SRtGqnqYr51F/o893zrW9ZNNt96q9va/cOePbbl13+9dVvfqNDjfumRR9yvvYL2XX/5l+73xqHoduHrXzdgNgqoNUGtCV5NWb/zWmOCV1PX228IbN2mxmNOHDJ33/iouVqL7bsaz4vXhPj9bx1sVIikwaarzc4eC+3IKxfe78iQ2TMPnHcT1c1/8zi+FuSDexr/5NFn9NKTE9HzZ34N/dp8eG/GTUPrsa/uu7hKRPfdfE+Pbb2+8RiF5Dr2aHOy+9bPNxYq3nZ9Y6L6wDcm3FQ1AAAAAKRQaBe+WAvcV0t9fX1uR71eN6RT2qap165da4u1IQqmFU7+8IEHWovlacJWNRLxgFr3Kbx86Y473PZP0ePbp40VdOp5cTqWgs7ZaCL45d/9XRee6vHx42hSWPvii/lp4teH656moNv3+efquDr+QqaOp6Jj6lj6THRsf1y/P07vRftn+tz0HFVt+M9Xx22n573+x3/c+owW+l50PtE38yaF8Jqk3hD7JoWn0Dqt36jA4mSbfxxvuS6wj3wiCkU3qcKiEVJfe0tgxY81wtVzJ0MXaOtxcZuuadSJnDuRnvDzzDFz09K7fjMzaX8jTA5bAbRC5P/w1R4XUivwP/uuRYFyplkVMv3xb7onY3d8ocddP/pK47V0O/56ev490bGvuTlwj1EwrdfRsRWMu/N5t3EZWuDOaXTIAAAAACCt3Bez6qRW1uK+utIkdX9/fzy9Rsr09vZamkTfmLFO2PlHf2RjZ8+6BfNEQWr7JLEPjjV9u+PTn3aBsKog4oHrewcOWP2ddyYdW7dPzVIXoVqR//lbv+Umka+JAlFN8eocFNqKwlMd40wUTHs6F+07EQtqdVtbrtmhrOMqmC585CPuuDq+brcH6Quh11FgrEt9Jr7iQ7f12Xjqt3492nQOO5q90frcFAp7+tx0rnquHqMaFt2OB9X6nF0AH4X5ei/6xoKOfTZ2nLnwNS76tY3Xkugz1v72AF2PmSq8BqajqWlR+CxjI6H99DWz7/7VhP3zi6ELWzWZqwBaQbZC61NHQzc5Hbc5uq3J6njn9Ur33BfPu6D6tvsy9nt/32N3fqnHTT63B88KjRu1IOPuOc/84Xl3fXVvYLvbAm6vMR2dcZPTqhHR81Qloqntm38n0wqgFVqv6Qvsyf/vwrE1Ra1fnw9GwbUe/8KfnnePPRpd12Pik98AAAAAkCb5fD5sdlJrwcTQrRynG0YndaqtX7/eTp06lZrKj06F8goiFXwqpBQF1lr8z1Ooq8nlX9u/vxVsXhUFswpNNQX8bxZRBeEX69Pr+YldHdsHtVvvvNOFywpKFUj7ShIFutqnaWKF7KLr2qdz1HEV8mphwB133906ro6lcHm2Kg8dqz1wv+K229x5eXotTRrP9N4OP/XURZ+bgnIFzPHPTR3Qqtfwj9Hj9bn4z0TvRd+R03P0HkRB9UtR4L3q2mttrqaaoha9D/16vnjzza1gWsE6iyZiNgpRPfVQ+5oPX92h6ekTb0607ncT1s1Mc9Uac5UfesyGrY2AW89TIJqN7nv7tXQtyqepZAXHvpLDL5qoCpAf/E1oL3+j8XlsKwZ2/FBoI0OTA+yzx0MXJH/7yxcf+4M3N8LrH+8PJ3VbH9o/Eb1Oj63fHNi56M8GvaYeE68N0YKNr0XfXBgeIowGAAAAgLharRZos8ZEdZBtXtFqimGlUjGkkzqaFVSfPn3aVrp1UVCp99sp7//0p10wq2BYgXF8yjYe/sYp6PynZk1IdoFT3Qq/NXn8gc985qJjqwv52AsvuOsKTBWwKpBW+KtJ5Jufe85VYyhM1rm5SeRmIK3jKszddMstk8JmvQ+Fv/45s51XXPtE8WwTxkeffbYVarefg4LyuHj4LQqH46+v89Hn4ANqcWFy9Lm0n+d09LnpM2yfovbHuuWll1q1I3qcNgXhCvoJqzEdhdLe+EijW/rwyxfCTAXTbhp4YyN49o+L++mroV37a4FtukbT06Gr+hBVWaSRps1f3deYVtZnd9M9PXbbfYGdPNToq/ZT55q2nisfZt/1yNTP2XzNhdoOTbq3O3OMgBoAAAAApqI8eufOneF3vvMdt3CiuNUUmaRON/36pyGk3rBhg3WawksFve0dxApBpwopfdD5s7NnFxxS69g6TvvzFcauir7h4MNdVWpomtjXhyjUXX/tta1paoXYus8Hxz5kVn/zVOpRYDtTSK3PYL4LJ7Ybjs5HYfp05zAfOs77m3Uhce1h9kymm6KOUyjtA3F9PpqUX+y0PFa27zwx87Sz+qhXrTY79I8TLnQeiwLqHbsCu/rGC+H22Gij8mPLhwJXCaKqD7+wYppsvT6wkUGzk7GQWIH16OB5uzMKlzde06jb0GT1cPS4v/3DuU+ajzQDaFV9TLW4oqak1zR/OOd9V7D+NAAAAADMkRuYLpfLQaQVUrs7Inx1lWK5XM4tKDg8PGwrld7fqlWrbKnEp3en8nNRmLwY04Wsqh3xr63AVJsCaYXUCqVFl7qtxymwXd+svtBtPf5f//VfT3ns2d5TJ2Sj11CY7ms8FkPvZarPqb1DejozTVFPR4G/pqhVTzLb5DkwFU1Ra1Pg/NbLF/av23TxY996OXSLKf7CLY2J6+NvpmtyVwGxFidUCK0gOc7Xc4wONj4T1aNs/eXAQptcy6HFDs8cm/r4R5u90QrCVd/hqd5DfdRHXmnUjSgk13G0b7S5Vq0mt2/9fMYOfGPCDr3ERDUAAAAAeBqWbdZ9SNjqPCgUCkG9XucrqJRLYsq4m2zevNmWkoLfEy++6Go94hR6Khj2U9C6PNe2kN9siyYqCFX4Wm17nFuAMHq9eKWGqjtcSP3979umW29tPV+P1bn44Nqfs4JVPzHtN31Xazx6vaUIqXU+CocV4refg7b5UNh9PLZIpHdujgsnzjRFrWM894EPXPRrID4YX+w3IpBOWvRQ1R6qBFHfdN9Ga9R6XH3x7391UeuxO24I3PNOpqzqQ5POWtRQofE9X+2x3b8R2HV7A7vjCxkXECt89gsUKixe09cIta/ZE7jt1vsyrsrjFz869Z8teq5qPLTo4q7fzLiwWq9x55ei49/X0wqkv/vfz7tj3/WlHvcYncNdj2Tcr5mvAdFjFWZvu97cMdoXdgQAAACAtIgCan/VDU67kLpYLLo91H1A09TrliCEvBT0vpZyilpcz3MUcKr2QaGrwmrfWxyvBtHCgr7T+Nwbb7h6juMvvDDjsRXaqmLihw884J4jCqHVda1AdX1sUUAd34XeUcDrF1B0IXZ0btq/JRbAar82HbcaHU9UY6Gp4APRthT0+grutSBh/L3ptj6b+VDVh96jnqfPX5sWX1TwPJvZpqgVgPvPSo/TsRVO67X8IpMLrXMBfrivMbWr2o+bPpOxdZsCO3zw4t+3qvzQxLWo+iONnvvihFscUZPTt36+x/7fL/S4BRQb09Xjralp3X72gfMWWuDCZG163IG/mbBvf3n6CpBnouccemnCbosCbQXceg1NZevY3oFvhG7SWuegx+gc9Drx11egrjB7dW/jPK/Z07n1EQAAAABguVEntTXXS2zVfVSrVQNk48aNNjQ0ZBMTc+/s7HYKpy/FlLimjm/+1rdcuPrizTc39kWhpaog4pO5CrMVBPtFARV8XhOF2O2LBLb7pUcecY/Zf8cdrX0KrrVIYpyOp9dtX7BQjz3+4out4NpTzYaO+79+67cmHeOGJ56wpaDPTV3OCtzj703n0P7eZuOfo28AaHFL0Wfve8Rn4qeop+q09vRroOPqXFvnH33W7//MZ1qLUQJxP/i6/g6ePUxWCHrizQlX8aE+ak1Ji7qn2/mFFeMLL6bNC3864TY/bX7meNiaco778UthtI23+qPVKR1/nALlP/nI+KTnaJ+CcB1/bW/z+FMsiPhSFFJr88ee6jEKsw98o/H6LKoIAAAAIMXcF06lUil0PzmvHcViMTswMLAml8v11mq1dw0XOXXi4q90N2xauROSZ8+etRMnTthKoZqPSz0h7hcydAsbTnMuviJivpUaet5Ys4qjk3UcSR33Up2D/zVIoiNa56hgX9PVCsBXrVuZP5EAs+f/S/d8A0+91etUBXJLYyJ3tsUYF+P2/9S5qd/2EBid9Z+/nzUkJ23/JgQAAACSEAXTKkCsRbn0SJRLj2c1Jai0ulAoaJqakR4469evt5/97Gd2+vRpW+4uu+yyrqgwmUswutBgM6kQ+VKG00mcQ5ILGOocfThNQI2lcsOvZ6xvU6OT+rtfWTk//QIAAAAAWPHcJHUUULufYs/6RchU90EnNeJUj1Gv1210dNSWq0tV84F0aq9TAZL2+j80gulzJ6Kgevn+UQ0AAAAASKfWwPSkn92NraoIWCaTsSuvvNKy2eX5Y8MKqLds2eLeBwCsRO8dbWwE1AAAAACAZUqd1GFG49Q2lxWckEoKeq+66qplF1T7gFqXAAAAAAAAALpHPp/3ebRbMzHTrPvQf0LqPjCV5RZUE1ADSFJ2tWGRVrPGHAAAAACkWq1Wc6F0qVQKNUTtexCUXAfUfWA6yyWoXr16NQE1gESt22Spc/lW66jNVweGZGy9ns8WAAAAQPfzk9TlcjlwdR+x+6j8wIwU/G7fvt0uu+wy60Y6LwXpBNQAknT1jekLAbdc19n3fNM9rBWQlF/cS0gNAAAAYPnxXyUGbZfAlLQIYX9/v23atKlrpqp1Tps3b3bnxSKJAJK2YWuQqqBa77XTIfW26wOC6gToM/3wXj5XAAAAAN2vWffR+mLTp4yhEVBjHtavX2+5XM5OnTpl586ds0tl3bp1tnHjRsJpAEtKwe3a9WbvvBbae0dtxVHvtmpN9D4Vyifh5ihQfd8VZj/cF9rRV/hhroVSv/emqwP3eW6j6gMAAADAMlMsFm1gYMCtmhhEN7LRjTXR9XwYhscMFzl1YvCifRs2sfKTjI2N2fHjx214eNiWytq1a23Dhg0uKAcAAFgq/JsQAAAAWLwgCK6MLvSP65FoG3eT1FFAbcBC+UUVFVYnOVmtaWlNcOfzecJpAAAAAAAAYPlzQ9TZMAztV3/1V8Nyuazgj58TxYIprFY3tOo3BgcHbWhoyE1XT0xM2EIpmF69erX19va6gJpaDwAAAAAAAGDZ8/XTofJpN0kdBYpuR71eN2Cx/MSzNtHvq9HRURsfH7eRkRE3ca3gOh5e6znaFHRrUzCtjYlpAAAAAAAAYMUJ+vv7w507d6r6w7JB0BiejnYqTGTlInScgmbCZgAAAAAAAABepVKxcrnshqdd3UcUVIfaaY0RawAAAAAAAAAAktTKojOapC4Wi0FzJ5PUAAAAAAAAAIDE5PN55dBu0xC1W4VuYGBAdR8E1AAAAAAAAACARNVqNXdZKpXU8hFk/B2VSsVPUwMAAAAAAAAAkBSXQzc7qd0ktZugLhQKZtR9AAAAAAAAAAAS1t/frxpqXQ2z1kytq9WqAQAAAAAAAACQpFwup2YPbRqaDtonqQEAAAAAAAAASEy9XtdFq34607xCzQcAAAAAAAAAYKn4TDr0CydqEcUwn88bAAAAAAAAAABLIQzDIOuvVyqV1ng1AAAAAAAAAAAJaTV7aHg6E9+Rz+ep/QAAAAAAAAAAJCaXy8UHpgPfSe12aLTaAAAAAAAAAABISHPhRCfKpMNMtMXvZJIaAAAAAAAAAJCoQqHgLrVYol840fr7+xVQM0kNAAAAAAAAAEiUuqj99Ux0w13Rwol0UgMAAAAAAAAAlojLoyfVfdRqNQMAAAAAAAAAIEFhpVLRpZugbk1SSz6fNwAAAAAAAAAAEuRD6cYkdfxGrVajkxoAAAAAAAAAkJhY7bTy6DBe9xHmcjkDAAAAAAAAACApzdrp1sB0VnUfxWIxGBgYsHq9zsKJ6Ljh4WEbGRmx0dFRGxsbc9vExITbvEwm47ZVq1bZmjVrLJvNusu1a9caAAAAAAAAgBXFTVD761n9VwG1xZJrYDEUPp89e9aGhoZcMB0Po2d6jrbx8XEXansKrhVU9/X1WW9vr7sNAAAAAAAAYFkL+/v7rVKphGr6yBrQIQqXFUwroJ5LMD0XOo7G/5s/AmDr1q2zDRs2uIlrAAAAAAAAAMtTFE5raDpQ04cbSy2VShqtpuoDC6Jw+u2333bb6dOnOxZQT+XcuXN2+PBh91qqDQEAAAAAAACw/FSrVZ9Jhwqpw8HBQZdaG5UfmAeF0cePH3eBcbyiYyno9RRW6/UJqwEAAAAAAIBlJVDdhzUzaYXUQbOT2nK5nAFzoYnmn/zkJ+7yUp/HO++8c8nPAwAAAAAAAMDc5PN51+rRbPiwjIqpvXq9bsBMND1dqVTcBHOStR7zoUlqnc/Jkye75pwAAAAAAAAATE3rz6mTulwuB8qnW53UhUJBV+mlxrQUBvve6W505swZO3LkCPUfAAAAAAAAQHcLmp3U1lo4UZ3U0U4DpuMD6tHRUetmOk/VfxBUAwAAAAAAAN2tWCxqotqySqqtuYqiAVPwAfX4+LgtBz6o3rJli61atcoAAAAAAAAAdJ/mWomhOqkVTgexDWhZbgG1x0Q1AAAAAAAA0LXiA9NBJmiOUk9xJ1JOixAux4DaU0D97rvvspgiAAAAAAAA0H0CrZUYxdNhprnDL5zIJDVaTp06tWwDak8d2vStAwAAAAAAAF1FOXRYLpddu0fGgCmcPXvWTp8+bSvBmTNn7Ny5cwYAAAAAAACgK/gKatfsoU5qraIYNKdNqfuAq8nQFPVKcvLkSWo/AAAAAAAAgC6Qy+V8o4cLqrPNSuqw7U6k2Eqo+WingFpB9ebNmw0AAAAAAADApaMeatVPa3A6DMMg6/f7Ow2ppinqlVqNofe1bt06fTPGOqFSqcx4v14nn8/P+BgF588884z19vbapz71KbsUarWa1et1d72/v38+T530Gcz3uQAAAAAAAEivKKB2WbSGqLOx/WEUVjFJnXLHjx+3lUxT4p0KqR977DF74403pr2/VCrZvffeO9Mh3PP379/vru/Zs8e2b99uS+3ll1+2xx9/3IXMek9zpYD9937v91q39VyCagAAAAAAAMwmnkOrjtqH1L7uw5BemqIeHh62lUzvT1PDnfy9rmNpEnqq/bPZuXOn27Zt23ZJAurFePjhhw0AAAAAAABYoNbCiZPqPpBuK22xxOmo3qKTIfXu3btnnZiejiaPH3zwQVtuVFGiqg99jr4qBAAAAP9/e/cfY9d91wn/e64ntT3XbkgzUydRcdqFJM/T0pTNkIJEm44WWn6YarXQQoUKrbRh/2j5o12J8EirrKqNkJ4WacsfNEg8WUHZii003RXqE1joskyTIkGa6VNSwqM6INrQbeLOBNqO79iu7Tl7Pt+53+szd+61x87cydjzekXH997z655z7j12/J6PP18AALai2+3WBw8ejMLNnEtPRTl1vxe1oHoPi4EFr9Ve1MO++c1vphtvvDF1Op20Ex5//PH00Y9+NAfS7373u9Nv//Zv5zYfH/rQh3LAW1psDLfaiCA4WnFEW42Xv/zludL6bW97W35efOADH8hh8S/90i/lfT7yyCM5hI913/72t+cq7bZY5/d///fTl7/85byfaElyuYF96aMd7rvvvnwMAAAAALBVMVhiDJoYU+5JHb+EGE3x1KlTBk7co1ZWVtJeEYF8BNU33HBD2gkRRJcBBn/1V3918DzC5Lj/Rg3AGOtFQB0iTI5gOILlp556Kldel6A6to2pBNpFhNHRjiOC8NJGJJbHfovYXwTmw0H2pUT/6vDjP/7jelADAAAAcNmavCxy6DJtbPdh4MS9KwLTveTkyZPbFlJH2Fsqi9sixO12u4PXESZHYBytQSLcjWVf+cpXNm23sLCQA+VYJ9aNEDm2jUA55kdVdlRODx9DhNexblRuR5Ac4XjsK6q3Q2wfYr9R/RyPZd2tiv1FAB7bRqW2Vh8AAAAAXInIl5rMK/elLu0+yjKV1HvUXgsbz5w5k7ZLBMQxDYtWGu2QOkS4fKnq42jZEY4dOzaoci6hcITUERKPeq+ybvTIfuKJJ3KgXKq0//7v/37wvITkZd3Y3x/+4R+mS2m3+YhjiXMTUgMAAABwuaanp6tWd4FqqhVQ5xmJPefUqVO5BcZeEucbAet2DKAY1dF33333pvnD+45geCvtMUp1dfSOLoF1W1S9x03c3te4/ZYQud1SpLT/GPd6nIcffjjvJwLxmAAAAADgSkRmNTMzU916661pcXFx0O6jjibVSSX1nnT69Om0F0U19XaF1FFZvN2i7/RwJXbpRX25x/1CK56jLUhUZocIxD/zmc/k5+02MVHlHb+xXG6PawAAAAD2nA05dA6p5+bmqmeeeaYeNYAb175z586lvWg7W35sp34/ntzTersqliM8LqI1STtIHtWqZFg75B7VfzuUQRiF1AAAAABcTLT7iKLpUjgdIXUdJdVRXj1ctcnesFcrqc+ePZt2owimIwiOPtHRRqTcl/E6qpkjxB4eOPFSXvWqV+Xq6wibo21HCZKjz3RUQF9KvOeowDwqqcv2caztMBwAAAAARikFkXNzczG2WhUDJ1bRl7qfWrMH7dawdtJ2awV5VFBHGB0Vzvfdd19uJxJhcBkwcVT/662IliQf/ehH01NPPZXe+9735uA53iNaiFzqX1GMq5CO7UpI/e53v3tLPbcB2r7y+To99tBaeu7pOp1ZSVyhW++q0p3HYuokAACAq0Bu9xHF05FNT7VnsjfttUETi/Pnz6fdKCqnP/CBD+T2GREAlwA5KqF/+qd/OofYV+LYsWP5p1QxGGPsswyC+OpXvzo9+OCDCbg8//hMSsc/u5a+daL5odfu7B70grzsaEqveG2Vp0mJcPrRh/bmn0HbLcL+mL75bEpvvFdQDQAA7Hrxl806KqmboLqu+jMirD7QTIfquv5aYpPnT2wu77rxyOF0LTh+/Hjaq26//fa0m0UFdYTJEVCXQRO3Q7T5iDBcix+4Mk9/ts7TXnDbG6o8bbcnH1lLn3pAQD0J73xwX66sZjKu5f8nBACAnVJV1S3NQ/zPdZR9nS2lNvXMzEx+TMCuESFytPvYzoA6xP4E1HBlvvrFvRNQhzjX55/Z/vN98hH/yzEpj6lOBwAAdr/4S+GguqZT1+t/SdSTGgAuLULqvWYSoXy0pmAyThx3bQEAgF2v/c8/q6ikzn+T6VdSswd1Onuzd+VePW/ghYle1HvNyonEVeT0yQQAALDb5c4e0ZO6bkxVMXxiWq+knp6e1sBwD4qwdi8Onrhv374EwKWdvQYHhgQAAOBFVTV5dN3v7lGVUtIqkuvV1VX/PnQPuu6669JeNDU1lQAAAACAnTU9PZ1mZ2fLy7qkdLWe1HtXhNSnTp1Ke82BAwcSAAAAALCzVldXY4quHnV0+lBKStq/f3/ai1RSA1xb9h9O6fU/00lHbqvSgeb56ZWUjj+6lp585PL+odiBQym9+f370peabY9/xj8yAwAAmIC6P0VP6jQVv5S+1OxNezWk3qvnDby4bntDlQ5ev3Fe9Hw+cbzek4Mybpfrb07p5x7c1zxW6cTTdQ6ob72rSne8Keatpcce2vrYCxF233msSt94ttr2kDqO853NcR5/tE6f/vDeGw8CAACgJWfSTTSdB07MoyguLi7WBk7cm6IHzF4bPDHON84bdtJzJ59LNx26KbG3vexoSjcerdKpb16YF6H1q76vSk9/ts4Tl+8t718PqD/2nvPpK59fv4ZREf3O39iX7rm3k6upv/ns7ri239EcZxwbAADAXtfk0tUTTzxRlUrqmFdFLxD2pqgq3kt9qQ8ePJhgp/3bP/q36Xff/rsJwp/9xoUfDEZI/QM/28lV1l/9Yr0hwGZrjtyWcghdAupw+mRKn7jvfK6o7v8rsqy0BbnjTes/m48q9kcfWmu2v/h7RHX1ncc6uRo61n3ykc2tRGLZPffuS0fvWl8nqrpj32f6ld1vfv/6mNW33rVeUf34x9dyVTUAAMBetLi4eKGSum/QB4S959ChQ3sqpD58+HB6of746T9OX3juCyOX/eh3/2h63c2vG7vtR/7yI+nPn/nz9Jv/8jfToZdMvpzu5LdP5vd81z9/l0rebfLBxz44dtkbjr4h/eCtPzh4Hd+Vzz7z2fw5vP+P3p+/Hz9y248kKCKUjgrqCEGjyjqC6hBV16/8viq99Mj6OieOp7zs3JmU+y6/8u717dptQsr8Lz+xHr7uFd94dj0EvvsdnfS5j1/4AcB6mHzhOpS2IPsPVTkcjormo3d1mnlV+s/vOT82qH7jvZ1ckR0h+DOfj22q9Nb7m/0cXhu8X+z73t/Zl+JfrJV9RxgexxX7zsfztfVAvW7WiVD9zMkEAACwF23o6NHpP9b9Bdp97FHXX399boGxV0Qo/0JFQB1B8yh1dfFg6MjhI+nIoSM7ElCHCEf/+G//OLebYLLiOv/tP/7t4HX8cODXH//1wQ8H4vEjj38k/cIf/EKCUab67fJf8doqV1dffyR6LK+H1K/+4SrN/dT6H9Xf+nqdA+1Yr+3I7evtRL51Ym/93PlTD5zPQfVb3tdJv/jf9qW3fXBfDv0jOG6L0Hi9Lci5vM0nfvl8fh6h9evfMfrPwfXq6E6unI52IrHdR/7VuRxY3/OvO7kyO0RofeBwlR76+Qv7jirq+MHBHfdUef0/+bX1sPqZ5nms0678BgAA2EM2/GVoqv1Cj969KwLqCKr/6Z/+KV3rXvrSl25bIB8h8y+/8ZfT5Xrbq9+WJ65eoz73qJiOkLpUSccPMj75N5/MFfPf/bLvzj/UiO3ihwU/+4mfTX/+lT/fUHHN3hZV0yHC53D2dJ3+1xer9NT/WMuV0+G6A+uV0lP711uCPP9MnV+3/2y/qXkdldV7rWVIVEBHcFxacpRBE6Na+S9/rx5UO986V6Xnjtfp9MmNAfY3n6tzkPzpD2/e9x33rP+Z8aXP1DngLo5/Zq15n33p+puaHwrUdX7PWKddjR0DNn7xkebzOimMBgAAGDLo7FF6Uue/ca2urvob1B7W7Xb3REh94403pp1S2jz81Gt+Kn30//tonvfhH/vwYP4DP/TAYN0ILmOdCDaj2na4JcRfPftX6eG/eTi99/vfm6tzo1o31ovQc7iFR+z/v//tf88V1BGOxvtvRRzDJ5/6ZD62COBj23i/UvF9/5/en1tZtI8r5g2H9XEe8d6x7fB+41hjH8PHFOcT64w7/2HRNiOC/uGQN47ne2/63sH+c1Dc7Ldcr1HX9be/8Nv5c2mLdh6xn8tpy/HRL3w0v2/5PE6snMiPcR3bYvl//LH/qPXKHhdhahE9qUubj9K6I6qnTzy9NlieK6z7f0pHWB3Bdaxz49H1gDu2ywF2s+wfvrh3BsIdFq09nnxkvVo5rvEb792X3vK+Kn39+Hq/6vVQP+Vq660qYfbbPzR6m5tuT4O2HdGDetg3dsmAjQAAALtF5JC9Xm/wut2Tmj0uKuljQMFruTd1nN91112XdkqEs3/13F/lgDSC2RJKxvy/+8e/27Dev/mDf5O+62XflftGR8AbwWkErCX8LfuK8DSC2eh5HeFrbBeD8ZUgOQLiCEtjP9FSJELYi/VPbh9DDOzXfUl3cAxl/+3e2RF+l+A2tonq4OG2JVFN/FOv/qkN+41jKft9+KmHc2BdguGyzg8e/cHBOtESIx4vFrBHaN8OqUsLlthHiErl+//n/elHvvtH8ry45rHfeL+yTrmuw2Le5YTI8YOBuvmvnHeIti4hPpPyfkUE4OxtEUoX506v95b++89dCDMjmM7tKl6+HjyX9dr+15N1evUPVenI7VE9XedWHyF6V+810SP69EpKX2+FxBFYn1k5n97WhMsvv3293UZUVp9q1vvkL289yD/dD6A/NqZndVRJH+j/NvgdN/v/KgAAgEup67r85Sk/ttt9KPMhVxl/9atfTdeqm27a3srVCFFLhXQRgW07WI11IuS9WOCZg+cmoG1XI0f1bQS3EQiXQLNUJ5fK3KgKjrYREZDGe+Zq7CagjnVKWBrrROV1OxQfJc4jQtYIjkvoHMF6hNQRVkfIGq9LeBzrRAAewfqJkydyQBzHGYF8HEcZODL2G8F3u1I59hPHXbaJMDm0zz+u18V6dsd5ffCzHxwcS4jrEMdTrk8cawTU7f3GdY7rGse3nUFxXPcfve1HN3zOsf+4bnENIriPY41wPubvVD9ydq8/+42Lh6TRj/q6/Skd//O1HDqfbQLqV91dpdvecCEEPXtmveXHK76nSv///6hzq48ysOJeEgFxDIYYIfTH+gMUFqU9x5mV9f/Nierzo/+8yr/ftQPn2++pck/rUZ7p942OIDzadxTR3iP6UX/l8+vtRiIkj/3EvDMr6+tE5fab399Jj398LQ+mCAAAQO7oUZ7W0emjE7/0Kf0hV1NHz+ZrUZzXdldRR+gYQWt7ag+aFyK0vFRFblTtRnAZ4W6ZynZ/9/yFcLm04Gi/jimOI5R129W8YSstK6ICOdpntMPTeP8IeeO8QlQtx3uVc4zANQLn1930ukHQHMF1VE2X44z9RqDcPreQezT3t/muG79rULldlsd+LxYix7HEsUYw3b6O7TYfsa/hSuzY5/B1faFKFXVcq2Hv+t535Ur3n3zNT+Zz/Pd/+u9z8D/8ww1oiyrqmJ57uk5f/tx6f+kInl96ZPO6X/5cndt//J8/vF5x/dzTey8IjUrnGNQwQuN7f2dfev3PVOm1x6r01vs7OSCO8LkMUBhh8YHD66H27W+q8vTm93VyK4/X/cTo/xWKbaONRwy6ePc7Ojmsjvd42web/b9v3yCQfuw/nc/7fvsH9+V14hje/qFODqpLG5BYN8LsW+9KeR/DAzsCAADsFbOzs/GQO1FHu496fn6+/uu//uu0vLwsqCa9/OUvTydPnkxra9dOT9MIpyfRizrCzuFexperhLJRFTxKCaDDpapvS9/lYVup2m1XJA9vG5XS5XkJpCPsLaFwzI/AOpRK4bLP0rojpmFR9RxKxXG0OIn1Yn7pWz3u2GN+hMKl53cJpYeD7eF+0CFC9OEfJrwQo6qo22J+/ADgvz71X3Mv6qiqjpB6u6u5uXbkUPr0ekuQlx2tcxX1d762GvRTbote1LHuq76vytt9fQ+2+gifemAtB8CvPRbB9IXe0REwf+qBC2064vXD951PP9ysE2FyiND48d9bS5/+8Pg/9z7RbHPPvZ30lvd1hvZ9bvD68Y9H24+1fAwRgocIyD/2nnOD949APcLsN/7rffk462ptMKgjAADAHrKhwirafVQLCwuRXNdJyw8anU4n/yTjxIkT6VoRAfVO9qK+HCWEjZYUEQCPW74VEYa2Q+1i1LzLeZ9o11FEePzJv/lkrmSO+RGyRhBcej1HcP2uH3vXhn1u5dyi4jimUo1eBlG82A8B4hjiWOL8opo5WnmUoLjsu1Slt/W+3du2dhsXq6IeJY4lzjOC/thWSM04f/XIWnr1D3dy248QYfTfP1HnMLotWn5Ei49X3l3l1h972Z/82lqeSpj/jefqQZVz25cerZvp3KB/dPSUbq8XgfKv/MC5DdvEvAjCY/8HD/X3P2JAxEcfWstT2feodSLMfvzj6+9vUEUAAIAmj4xf5ubmqqWlpSpGVYRw/fXXpxtuuCFdC+I8dnMLkwhLI7h8buVCi48yRcB6OWFqDNRXWpC0baW1RVQvx6CIw6Lqt12NHMFwHFeEyCVgLW1IHvzLB/PzdvAa4fQXnv3CyHMr4nk55tg2qo5jGjWgYVvp7Rxhb7QVaQ+iWHpal5Yi7feKELz0zC7Xtx3kt9uSXMrFqqij1/gv/MEvjNxuXOU6176//N06/eH/fenK2eidHH2rP/tba/nxL353Lfedjm2jYrqtDKzYHnhxL4vWGjGNCqjbIiCO6VLrtcW6Zbut7PtS6wAAAOxROY+OJzGIYg6pDx8+7G9JbBLVx/v3709Xs0m1+dhu0a84ws4IfgctMv7yI3mAv62GpSFC2wiFP/TYhwbtLCL8ffhvHr7kttFuI0LhaEPRPoaVb6/kZUUJmSMULkFviPeN1hvDFdPRiiOC7oudW4TM0au5HHM8xjalHcjFRP/tuHZR1R29r4s8gGV/WQmqY7/xPtHuIyrC83E35xDrvv+P3p+vVZxDrLOVAPlSVdTRCzwGrIywuv153P+n94/slw2jfOtE2hRKF9G3+sht621BYp2VrycAAAC4WtRzc3PRlLqeSjBGtP245ZZb0j/8wz+kc+fOpatNBNSveMUr8nnsdlE1HC0oIkwuvZsjdI02GZcadHFYbBMhcAzOFyKQjZYZP/uJn73odhFw3/fG+3JIHcFue9vhY4i2GtFmo10xXVpvtKuZQ4TB7/n+96SHn9p4bu/9/vcOKrQjrI3QthxziLA7zuVSIgiO441jGpbD9eZncvf/z/s37Pc//NB/GLyOMDqOL847gvM4tl/8/l/c0sCGl+pF3b6mEbqHeI8I36M39eV+tjDs+36ykw4fWe9J/dhv6WsMAADAVSMXTS8uLuYXUVJdNYn1VDPjwPT09KFer/e1xCbPn9j8b4FvPHI47QVnz5696oLqElDv1j7UF1Oqi19ogFmqliOEvdy2Ett1DJe733LMF1tn1D4jgI/Qd1x/561ei1H9q7dLCeF/81/+pnD6KreVVh075WVH1x+j2vrcmTRRP/5/be8P/IZ7PrO9/t1fqEOYlL38/4QAALBdqqq6uXk4OT8/f/rP/uzPzk/VdZ1LqvsLtf1gkwh6v/M7v/OqCaqv5oA6bFeAeSXh9HYfw+Xu90qOOaqUo+L7YgMQbnW/kwyPy4CJAmq2UwymCAAAAFebGBux1+ulhYWFJpKuUid+iYETY2EsgFFKUD01tbsrs6KH9tUcULN10Q/6X/zWv8g9pB/4oQfS1UAParhgv8JTAACAPSsGS2y/3v3Netk1Ivh95StfmW644Ya0G8VxRZAuoN4bYsDDaPHxX97+Xwa9rWEnTF3d48nuGjfdViUm4+hdri0AALC7ra6u5o4eMXBidPrIIfXhw4djplYfXFIMQjg7O5uOHDmya6qq45huuummfFxXwyCJbI9omxEtPq60pQlcqZceSXtO6X29nd54r9+vJ+V1x4TUAADA1SEGTowW1PlviAsLCwkux/XXX5+rll/60pemF1O8/z/7Z//sRT8OYO+47Q17LwB8xWu3/5xvvasSVE9AXNM7j7muAADA7jY9Pd3+i2bViXLq+fn5wYwEWxRtNaKC+VWvelU6ePBg2knxftF7Ot5f9TSwk248Wu2poDrOdRIhdbinCVTfen9He4oXKPp7xzV854P78jUFAADY7VZXV3NXhL56KsqpY+DEmZmZKhbC5SqDKp49ezY9//zz6Vvf+laahAijo4I7Rv9sftqSAF4sEdwevD6lr36xTv/4TLrmRN/taGsS5xmh/CRF1e+dxxIAAAB7S916rOJvnjHta6Yohe3Wdf1sYpPnT6xsmnfjkcOJzdbW1tLKyko6efJkOnXqVH59pSKY3r9/fzp06FAOqFVNAwAvJv9PCAAAL1xVVbc0Dyeb6XQznc0j30Ul9TPPPFOrpGY7lIrnmEJ8r86cOZPOnTuXTp8+nSuuI7huh9exTUxRlR1TBNMxqZgGAAAAgGtOnS5UU1c5pI5RFKPdR6/X0xSSbRdBs7AZAAAAAOgrOXQOq/PAiWF5eTkBAAAAAMCkxcCJ0eEjnneqqooXMbNdYg0AAAAAABOxtLQUHT7ywIkxCl07mNbuAwAAAACASaqj/XRaz6Nzu4/q8OHDdTwmAAAAAACYoG63m6qqqufn53MldR44cWFhoSzX7gMAAAAAgInp9XpVM6WVlZVcST2VAAAAAABgh0xPT8dUDXpSx8CJrYVafgAAAAAAMDGrq6tpeXm5npubW+9J3Z9f9Rdq9wEAAAAAwMR0u91cQb24uBgvqxJSp5mZGZXUAAAAAABMVPSkTq3xEUtIXS8vL6ukBgAAAABg0nIOPT8/XzdySF16fwAAAAAAwKRVMzMz1cLCQs6lI6SuDh8+rIIaAAAAAICdMMijq6pKnainXllZUUkNAAAAAMCOWF5eHgTVU1VE1U1yHQMnNguE1QAAAAAA7JiopI7HKgZO7Ha72n4AAAAAADBJG4qloyd1HkVxdna27vV6CQAAAAAAJqnJo+MhulHndh9RPV2lofQaAAAAAAAmYWlpqZqfn18fODGth9PafAAAAAAAMHHT09P5cWFhIRdOd/rzq6FHAAAAAACYlFw4He0+8sCJ0ZO6vQAAAAAAACah1YI6t/uIntQblicAAAAAAJiQXq+XW1DPzc2lxcXF9XYfzYvSl1olNQAAAAAAk5Rz6Aio43lu93H48OFcXj09Pa2SGgAAAACAiel2u+2X1VS//0eoV1dXVVIDAAAAADAx/XYfA1FJHTPKBAAAAAAAO6GOTh+d8mp2dlYVNQAAAAAAEzczM5OLpquqGgycmJaWllRSAwAAAACwUyKTrnNIvbi4GFXUKqkBAAAAAJi0enl5efCiE+XUc3Nz+lIDAAAAALATqlb76WoqGlNHUN2nmhoAAAAAgEmKARMHoXSnFVAHldQAAAAAAEzU8vJyHWMlptKTen5+vvSkVkkNAAAAAMDETE9Pt1tPVzmkXllZ0Y8aAAAAAICJq6pqQ8F0p7Ws7na7CQAAAAAAJm1xcTE/dtover1eAgAAAACASWly6GpmZqZ09ljvSR0NqlszAQAAAABgUuoYODGtt/yopmJOqaTW7gMAAAAAgEmKgRNXV1fjaRROX6ikDtp9AAAAAAAwSU1AXbdeVqUndT07O1snAAAAAACYrHZP6tSp6/VsemlpSU9qAAAAAAAmqtvtDgqmI5/uVFWVm1M3yXXME1QDAAAAADAxTTBdRS4dbaibxxTtPnJz6uXl5bw8AQAAAADAhJSe1IuLi+uV1KkfTEcldYyqmAAAAAAAYIJK++l2JXU2NKoiAAAAAABMSuTRdaf/olpeXq673W4CAAAAAIBJiY4es7Oz0ZO6iv7UU9Hzowye2Ov1EgAAAAAATMrq6mpM1dLSUs6mO/HL/Px8LKv1pAYAAAAAYAeU1tNVJ8qpFxYWorw6AQAAAADAJE1PT+fHubm5/Fh6Ug9GUwQAAAAAgElZXV3NVdSLi4sbBk4sCxMAAAAAAExQ1Z6iJ3Wan58v/T/qBAAAAAAAk1PPzMwMnudK6uhJnQAAAAAAYMK63W5aXl6Op1E0XeWQujSoBgAAAACASer1elE0nQPquq7XB05cXFwsy1VUAwAAAACwI6qq2jhwYrfbXUsAAAAAADA59ezsbH5sbGz30ev1OgkAAAAAACanWlpaiq4e1aCSenFxsU4AAAAAADBh3W438uiSSVdT5Ul/prAa4BK+8vk6PfbQWnru6TqdWUmwI269q0p3HovJP3oCAADg6tbr9VK0+zh69GguoI6/6dbz8/OD1DoBMFaE0x97z/kcVAuo2UnxnfvUA2v5OwgAAABXu6WlpfI096SuFhYWygyV1ABjPPnIWnpUQMiLLL6DEVgDAADA1WxmZqZaXFyMp3X5N8NVfzRFldQAYzz5iGCQ3UE1NQAAAFe75eXlVDp8lJC6jtEUp6enEwCjqV5ltzhx3HcRAACAq169sLCQi6ZzT+rUHzhxdXU1AQC72+mTCQAAAK5a09PTpbNHWO9JXV50u12lWQAAAAAATEwUS9d1nQunG4NK6npmZib1er0EAAAAAACTtLy8XM/Pz6eqqlK7kjp1u90EAAAAAAATlDt6RE/qUkmd5ubmqhhNUSU1AAAAAAATNuhJXSqp68XFxdzuAwAAAAAAJqk9NmKppI52H7mSOkZVTAAAAAAAMCExaOLS0lJ+Pqiknp+fz8n16upqnQBgl9h/eH0CAAAArh1NDp0f5+bm4qGean6pFhYWynKV1AC72PU3p3TnsTycQDr+mTqdePryf7Z45LYq3f6mKn3z2To9+cjWtn/9z3RyWPzkI2vNdmlLxzfOVt83jvOdD3bSmZMp/T8/fz6dWUkvqgOHUrr7Hevn9thDawkAAAC4YjkYiDbU8TgVPT+qqKluFrR7gQCw+9xzb2cQAn/HzXX61APn0+U6cvv6fr7y+QiLt7b9699RNQF0lZ5ptomQeZxYJ/Z9MVt93+9oAu8Dh6tmWg+IX+yQOkL6cm5CagAAAHhBqpmZmep7vud7UhRQT63n0+sLer2eSmqAXSqC2tvvuRAA335PlYPTFzu8HWdcgH76ZNqSLz1ap4fvO5/Xv1j1NgAAAHDVqZeXl+smoM7jJUa7jxQ9qSOxnp6eTgDsTtGiI6qKnzte5xYYt95VpTuaoHqrLTt22pUeVzt4j6AaAAAAuOaUYun4i3/uSZ3NzMykSK8TALtSafPxud9bSwcOVTmkjnnjWmdEf+i3vG9fOnrXetuMaNPx6CXaVNx5rEqvf0cn94MO0YP60Qm2tnjng/vycX7ivrX0uv57h1/5gXN5fiwPH/lXG8/xyG0pvfn9+/JjnNvplTodf3T9/NpV1xHi//D7O3nZk//vWt4mrluItiNR7T2qSvuN93bS63+mGuz78d+r87UAAAAAts/8/Hy0+1ivpG4NnAjALhSBbTtcPdMEp29uwteYN6rlR6z/czkAjpA1DQZYfOv9+8ZWOEcwW3ouf+PZOoe30V4k9jEp0Xc69v+W/rnE+0YAf2H55veOivK3f3A9vI7ziin2EQF77OM/v+dC8BzXJvYRYXYE3tE6JK5frBfTvb8zlX79J89tuH4/cX+nCcw7g/3H9YvrctNtCQAAANgGMTZir9dLKysreazEqaHlelID7ELtgLoEsCVsjWrqz318Y5VvhKoR3H6jWfdj7zk32CYGQHzz+/Zt2n+E2u1BAUv1dMx/+4f2XVFQffSu0dtE8Ls5VK+a4zyfz+lS3vK+zccZ3nr/+qCScR6femDj9YjrNHxeEVBH+5T29YuguwTU7eMp6wMAAAAvXH9sxGpxcTG/7tR1ncuq+7T7ANiFShuMdsuJ459Z/y07WloMKwMsfvrDG9tZPP7xemQQfMc9pYI6bQh+Y9tPf/jK2lxEJfeoqV0pPTiu31vbUkAdIXIE2l/6zObWJeU449yjgrpt1HmVa3nTbVVr/xeuc/t4Yv04RgAAAGBb1OlCFl1NVZXiaYDdLKp4S4/odnAaQWpp+fHyZvnX+y09jtyecoVwOD5i4MEIt28dqnJ++e0XelAPW6/eri+7mnpcW5HTJzfP//rxrf2MtFyHqvlz7LXHNh9PtOaIc48gPFqiFCdG7D9afwyL9iNpzLHHtSnV5gAAAMALUvWnOoqo498uq54G2MVe/zPrwWgEsNFTepQ73nQhpN7fr1SOYHmUUSFxCWe3UwxKuN32H14/t9vf1Gmm8evF+bQryM+cTFtSgvhTKwkAAACYkH5P6ggo8l/Ep/pPqtnZ2Xp1dTUBsLtEAB2iQvjWMX2eI8h+rN/OooTT4yqfR7XbiHYYt6YLFdjD9h/aXf/qJlpvfO7j43/Geurklf38tVSMR8j99ac3Lht3bQAAAIDL0+9JHW2o81/gp8qLhYUFfT8AdpkYfLCEzQ/93PlNFcH7D6X0zujz3A+wozVHDEpY2l6UeW3RDmRYbrdxrBq002iLdiO7JaBtH+c3nt3+HtER1uf2KrdXm1qljLo2AAAAwBWpZ2dn08rKStWo878hbwLqstDfwAF2kdf1+y7HQIEnnq6bEHXjFPNO9Nt83N6vuI5ey2Ve9KxuDyJ45LYLgwO2lfUj1B5e/pb37Z4+zNEXOgL4OM7hqvII9P/dX0zl0P5KlcEoozL9+lYLlHiuHzUAAABsm2ppaalaXFzML3Il9dzcXJmhPzXALlKC2OOPjq8ajuD21rv2pTt/vJMefWgtV1JHP+h7f2cqV//+wu/sS88d31hZPRzwxrzPfXwt3f2OTnrr/Z0mqK5yT+db74o/GKocYu+GSuII4B/7T+fTm9+3L4fRJby/qTm2EtI/8/kr/6Ms2ojc+RPrldq/+N+m8v6jev32eyLITxuCawAAAODKTE9Pp9XV1bp0+NhQFtbtdhMAu8Md96y3+ojK4S89Oj54jerf0t7jptvKoIkpPfTz5/rtK6rc1zqC6ehbHaH2KH/ya2uDvtbrFdVVDqg/9p5zef+7xeMfr3MIH+cW5xUVzhFQxzF+ujmHRx96YW1APnHf+cE1iv3HdYiA+tO/tv0DQQIAAMBeFAF1PJYW1FVdNxFEVU3NzMwcXF5e7javn01s8vyJzQnNjUeMogV7ya/8wLl0NSoV0N94br1f9aXs74fdEXR/49nd/Q9s4twinJ/Ese726xCtTYCd5/8JAQDghWvy6Fuahxh561QznY+/4Vbz8/PtvtQAXENKv+mtiiD7K5+/Oro/Xe65XY6r6ToAAADAVabuT1FZV0/F6IlliXYfAAAAAADskJxNR0/qXEkdM3q9XgIAAAAAgEmZnp6OCupqbm4u9yjNAydGq4+ZmZm8IAEAAAAAwAQ1eXRaXFxMdV1XEVLX/UrqoPkmAAAAAAATtby8nLPoaEc9FUl1iOQaAAAAAAAmaXV1tQyauF5J3eTTaW5ubpBcAwAAAADApEUuHaKSOpdUJ/2oAQAAAACYvKr0pA6dVkCtkhoAAAAAgEmrl5eXBy9i4MRSQa2SGgAAAACAiZudnR0MnNhpL5ienhZUAwAAAAAwUUtLS6UndVVCaq0+AC5h/+EEAAAAwAsXxdLV4uJizqUHldTRqHp1dVVYDTDGTbf5xybsDkfv8l0EAADg6jU9PV3afeS/4EZIPej9kQAY6433dhLsBq87JqQGAADg6rW6uhrtPspfbuvBwImtmQCMcOtdlaCaF118B+885nsIAADAVa1OF1pQV526MT8/n191u90EwHj3NAHhW+/vaLfAjop+6PGde+eD+/J3EAAAAK52s7Ozqcmlc1A91UzVwsJCpC11r9dLAFxcVLHeeSwBAAAA8AKsrKxUdV2nTlVVg8RaJTUAAAAAAJO2tLSUH2OsxKlIqpsnVZRXlwUAAAAAADAJUSwdXT0WFxejG3WVK6mDgRMBAAAAAJi0JqDORdMpF1JXaTD60szMTAIAAAAAgElrd/UYhNTLy8t1AgAAAACAHTA3N5cfO615VX8CAAAAAICJ6Ha7uWD68OHD0ZO6ziF1SawbqqkBAAAAAJi4hYWF3JS6XUldx6iKAAAAAAAwKXVdDwZObJ6vt/uIsuqY0ev1EgAAAAAATMrq6mp+LB0+piKprqr1VtQqqQEAAAAAmKTp6em0tLSUp8imO/2AupqZmUkqqQEAAAAAmKTV1dUyNmJd2n3kGcvLy3pSAwAAAAAwaVE0XfWf1xFSlxfRpLpKAAAAAAAwOXVVVfX8/Px6u48yM36JBQkAAAAAACanin7UCwsLuXB6qsycnZ2tmwUqqQEAAAAAmKS6yaPTa17zmlw0nSup5+fnI6DOCxMAAAAAAExQVFAvLCzk7h45pF5ZWVFBDQAAAADAjui3nl5v99H8ohc1AAAAAAA7prSeHlRSx/OhRwAAAAAAmJR6bm4uP+mUKupoVA0AAAAAAJM0PT1dzczMVIuLi7nlR7T7qCKojvLqbrer7ccYVadK9drGy/P8iZUEAAAAAMDlWV5eLmFrHZXUaX5+PnFx+6Y6CQAAAACAF2Z1dbWOzh5zc3MxcGKK5LVeWFhIMzMzqdfrJUab7u5PAAAAAAC8YFVr4MQqnsQ01UwHmulQk1x/LTHS6slvp1O9MwkAAIobjxxOAADA1jWx9M3Nw8lmirD1bO5hMT8/X0cldUNP6ouYPvSSdOilB9LUdfsSAAAAAABXpBRPpxgzcarMXV5eTlza/oPX5QkAAAAAgCtSl6mqqroztAAAAAAAACapaj/XkxoAAAAAgB3T7knd5NHn2pXUqdvtqqYGAAAAAGDHdJqkOg+cmHKP6rpKAAAAAAAwIdPT04McuqqqNBWNqePFzMxMZfBEAAAAAAAmaXV1Nc3OzqajR4+mJ554IkW7j2pubk4FNQAAAAAAO2JpaSktLi7mSupBT+rl5eXc8iMBAAAAAMDklBw6WlDXEVLXkVhHeTUAAAAAAExS6UkdHT6yGCyxsa+Zd7CZus3rZxMAAAAAAEzAoUOHbu71eiebp2eaPPpsJ3p+zM/PJwAAAAAAmLQmoB6MkRj59FSTVMeTmBl9QAygCAAAAADAxHS73frgwYNVf5zEqlRS1zMzM1UsTAAAAAAAMCFRSR2dqJun0Y46TTVP6oWFhVxB3YTUCQAAAAAAJqnT6URIHQMm1p3mSRWV1Gm93QcAAAAAAEzU2tpaFE7nKULqtLKykiupe71eAgAAAACACaqXlpbyY0w5pF5cXKxnZ2cTAAAAAABM0nDb6Qip67m5uSqSaz2pAQAAAADYCZFLx8CJ8UuMpLivmXegmQ41r59NAAAAAAAwAU0effPs7OzJpaWlM83Ls51mRpqfn8/LVFIDAAAAADBh0dkjxkmMntTr7T7KwIlRVZ0AAAAAAGBy6v4Uqjxw4uHDh/OM1dXVBAAAAAAAE5SLpUtP6hxSRyX17OxsO70GAAAAAIBt1+126yaPTouLizFg4qC9x1QzHWwWdk+ePGngRAAAAAAAJqIJpm9pHk420+lmOheV1DmojkrqXq+XAAAAAABgkiKPnp+fr6PdRwTUMUUl9QGV1AAAAAAATFJVVTen9UrqM6lfSV1Eal0lAAAAAACYkG63Gw8li64HIfXMzEy1urpq4EQAAAAAACam1XY6F07nkHpubi7P6SfYAAAAAAAwMdGTOvWrqafKzOXl5QQAAAAAABOWw+kYOLGqqtTuSZ2mp6f1pAYAAAAAYJLqpaWlamVlJefRVfT8aEzNzMwcWF5e7javn00AAAAAADABTR59S/NwsplON3n0uU6UU4do96EnNQAAAAAAO6AuTza0+2iNqggAAAAAAJMUbT7qTl3nwLpOAAAAAAAwYd1ut+TR0eajKu0+4pdauw8AAAAAACap1+vlUHp+fr6OIuqcVDfTvmY62EwGTgQAAAAAYGIOHTp0cxNUx8CJZ5rpbLsntZYfAAAAAADsqBJSV0OPAAAAAACw7frtPgZZdAmp6ySgBgAAAABgh8zNzcVD1em/KAG1lh8AAAAAAExavbi4GHl0Xcqqp5rpQDJwIgAAAAAAE1RV1S3Nw0paHzjxXKcJpdP8/HyuoJ6entbyAwAAAACASSrtp+vIp6OCOq2srOQZq6urCQAAAAAAJqianZ2tX/Oa10RVdRq0+2hm7m9C6kMnT57U7gMAAAAAgIkYavdxdirKqZuZ9dLSUl6eAAAAAABgsgZZdCfKqefm5kpFdZ0AAAAAAGBCut1u5NB5iiLqTsxcXFxM0QMkAQAAAADABPV6vfw4Pz8fXT6qQU/qZjrQTIea5PprCQAAAAAAJmCoJ/W5qKTOFdQzMzMpafcBAAAAAMCEzc7ORhvqeFoPV1J367p+NgEAAAAAwAR0u91bVldXo5L6dDOdH66kBgAAAACAiWkC6ngoBdR54MR4os0HAAAAAAA7pWTSdaf/JMZQrLvdbgIAAAAAgJ1Q13U1VZ4vLS0NyqsBAAAAAGBCBp09oni6057R7Xa1/QAAAAAAYGKmp6fbBdNV6UmdZ0RpdQIAAAAAgAnpD5yYNZl03Wmm9kKV1AAAAAAATNTMzEx+jMESy8CJaXZ2NgJqldQAAAAAAExU9KIuzzvNi/wkBk7UkxoAAAAAgB2S8+gN7T56vV4CAAAAAIAJqpeWluIxV1APKqlDt9tNAAAAAAAwQSWUXq+kbr/o9Xp6UgMAAAAAMDGtttORR9ftdh/19PR0AgAAAACASem3nR4UTOd2H3Nzc3nG6uqqgRMBAAAAAJikXEFdnud2H4uLi2UBAAAAAABMUj07O5sfo9NHJwEAAAAAwA5qwukomq6i00cOqefn56O0WqsPAAAAAAAmbnl5uWTSdYTU9crKSk6tk5YfAAAAAABMVtVv95Ez6Qipq35P6jQ9PZ0AAAAAAGBSut1u7urR7/CRquj90Zhqnh9opkPN668lAAAAAACYgCaPvnlmZqa3vLx8usmjzw16Ujcz46m+1AAAAAAATFLV70mdBgMnRk/qZmYCAAAAAICdMDc3l+q6HgyWuC9daPfxbAIAAAAAgAmoquqW5mGlmc40efTZTh1RdRqE1VUCAAAAAIDJabedrjoxauKYhQAJAAAAACagirESm3i6HrT7mJmZObi8vBztPr6WAAAAAABgAtrtPprpXCcBAAAAAMDOKS2oc2eP6EkdoyhWy8vLZSEAAAAAAEzE9PR0aUGdg+qpfkvqemghAAAAAABsu+hDPTMzk6Jwuq7rqrT7qMrCBAAAAAAAE9QE1DmLjiLqdk/qutfrqaQGAAAAAGBi2jl0tKMuIXVp95EAAAAAAGDCBgMnTrVmAAAAAADARHW73frgwYPp1ltvzbn0VJRT93tRC6oBAAAAAJioGCwxBk2MKfekjl9CjKZo4EQAAAAAACZpdXU1cugyDdp9ZL1eL4Lq/6N5eqiZ9veXl94g66XXU1Pp3Llzdf+xzKvjeWtZnt88T4M3mprqxLL2+v23zfuObfvbVP3lg+Pq77f9umper6Xx1d8lbN+wvLWf9vFvWLe/701hfev40qhlrXOt+vuvyrrDxz9k+Bjq1jbtCvd66Nja81Pr+g/vf/iz23BMlzi2wfUYWm9T5X18Zu15/X23P+fBOu39DH0O1SWOq32tNhxjmd/aJuattb6LG65DrN8+tpb2eZTPsm5916v+tsPHMHzcI6/7qG3G7KNqXZ9x25b3aN8zg+/gmMfh7TsXe5/ha+L+d/8n97/73/0/cr/J/Z+5/93/7n/3v/vf/d9fx/0/mvvf/T9qH+7/8dfJ/X9t3f/x/Hwzndq/f//JeDE7O5uWlpby9aiitLqxr5l5oJkZIyde30zxeCD2O+KgL3WidetGHvUl2XTTtA9+1EVrvU899JvQWMMX6GLzyxdwxDEPvmzDH1brN7r2rkadT9268aoR77/pSzTqN6s0+nqki90IY+aNutZ1/3yqUfsIw79ppDG/yW/hSz94Pu43onG/eacRN/+I/dSjbtgRr8t1GPUbQdqKcecydCzt786l9r2l9x+6VuPus3Spa3Cxdbf43u5/9/8l33PU/kbt0/3v/nf/u//d/+7/Mcfo/k/uf/e/+z+5/93/7n/3//jjdP9fPfd/fd111507e/bsmeZ5r9vtrvR6vQir4/X5/FOYZtp35MiR/SdOnDjYPD/0kpe85OC3v/3tl8Q+m41Ts/Fgx/E6tOf136QaMb/qLxvML8+H9lM1r+vm+ab1xxl1HO15w+854tg27W/4GC+iHO/wvNiuHl5v1Hu31q2G5/fXb9/I9eUc35jlF3uvNOpz3spnMLRNNXT+49bddOMNz+sfW97f0Lnn9YauRfvz2PC87PNS34eh5eW7uOHaX+yaXOzcR71Ha155r0vtd9P12cJ9Oc6m699+n/Z32/0/kvs/uf+Hzs/9n9z/7n/3/zjuf/f/0Pu5/y9w/198v+7/jce76Tjc/+liy93/7v/C/T9if+7/F/X+j8T628202kwnb7755lN33HHHtxcWFgYhdZT8R8R9YLqxurqaW33s379/35kzZ/IemuepPN+KMesPDq4sb6/XPK+b59WofUXFdxOc1yPmpdQ64eF1W/sfdWGyJpTfsO/LEfsvyvs08/I/RRg6v8FP68YdyyWu8Va3yeu1j6scW3/dqn+dB+vH8Q5f94sdy4hl8X5VeZ9QrumI67OlfZbt2p/d5X4HR+33YvOH3vOSx9d/nc99xHf5Ytdv8D0fsc3w5zO8vw3Lr+SaXMy4c3D/jz/Pwv3v/nf/p4ut7/53/29pn+5/9397X+5/97/73/0/Yl5K7v9N67n/R+/3YvPd/+7/y+X+Xz+nbbj/zzfLI8WOlU698pWvPHP33Xef/cQnPrGWd/yBD3yg0yTWMUW0HhXU8RjBdafJrPM60cw6njeP+aBS66J1u93cz3rc8vbF66/bviBlnarZPpXt2+/b3n7E++X3aubV8eVsbTP4SUQs679n3r61XWq9bh93mZ/6+0v9Yxu1/fBNVbfOZewXcvh9hq5vnGPeJs6pfaxD55Na+67KdmXZqGMo1649b+habzj2oX20z3FwHcpj7Du0r/UYY/cb++ifcxq1j/Zn3l5evlflOzRi/4Nt2vtof67t65jG/6S3fW3TuHX7n8PgXEP7ux3PW+ts2P+Iz23UvTTqe1O3Pt+t3JeD6xGDpraOZfA+rWN3/7v/2+fo/nf/u//d/+5/97/7f+P5uP/d/+5/97/7fzT3v/t/+Nq5//fu/V/3p3M33HDDuWY/3/7qV78aldUx1eWNqyaorvpBdVRU54C61by6rZ6ZmcnzlpeX84zm9eB5WSe27fe7rkfso5xo1azXXj7qg8/rjXiPwbI09OUa1t629XzTNkPHMvx6w3m3luVzzStcON/UOrf2+dStY9pwDUed79Dy9vvX7c9m+LjHHXtsl4Z+kxq6roNzKeeWRn9G1Yh9lms77rMYzB9zbJs2aF2Dcr6DhuqxrPXd2vA9iP23zmFwXkOfRbrYd699/Yev0ah9tL8P7f0MHVvawn0xuI6t67LhPUd8Nwbz2vPLcbePrXxm7cb0qf89GD6mUd+r5P53/7v/3f/J/e/+d/+7/93/7n/3v/vf/e/+d/8n939ex/3v/h91XqOOrXVvRgX6+f7jWnM91wYXtr9xmfal9dYf183NzUVF9VR5bE3X9aep4am17mD7+fn59nbt1xv22Z4/vJ/+svK+121lH/F8+PWIda9rv9fQPq4bsd/rhq/D0LKyvw3zh45/03EPH8OI97rs163zHxxTeRxePjwNffb59fC27ddD24/7jDcc4/A6rf0NT1Njjm/4Om34zgx9/zYc16jjK+c06jvU3sfQZzbusxp1v4y9b4a/m8P7bB/XmHO4bsR9OvL7Vc5lzHlt2sb97/53/89v+uzd/5vfy/3v/k/J/Z9G3y/u/+T+v9Tnk5L7f3h/yf3v/nf/u//d/+5/9/+WXl9t93//deTPUSR9IeguJfJjVM3y1N+gKuu2tinBduqvl1rz09A6G/Yx4v2Hl214jxKmD733qOMdud1F1tuw7pj3KfNSa500vE0af+6pbJs2X4tNx9Z+vMQ2l7z+Q9uPOv/hH1KM3Ka1/03XanidoXXT8LrjrteI/Y36Pox7Xo34gcvwtdxwvqO+A2Nej9rn8DGOW2f4vFPreNOIbdO47+CYz374vhzeVxraR0qbr1l7nXHru//d/yOv1fA67n/3//B+UnL/u/837T+NOdb26zS8XnL/jzwP97/7f/gY3P8bjmPD+br/3f/D67r/3f8jXo/a5/Axjltn+LxT63jTiG3d/xv3seHc3f977/7/3785kdhag6mdAAAAAElFTkSuQmCC;" vertex="1" parent="1">
          <mxGeometry x="510" y="179" width="503.67" height="260" as="geometry" />
        </mxCell>
        <mxCell id="vCL47iHc-PsyLdccSqnO-19" value="&amp;lt;Wrapper container-left /&amp;gt;" style="rounded=0;whiteSpace=wrap;html=1;" vertex="1" parent="1">
          <mxGeometry x="202" y="419" width="160" height="20" as="geometry" />
        </mxCell>
        <UserObject label="userState&amp;nbsp;&lt;div&gt;{&amp;nbsp;&lt;/div&gt;&lt;div&gt;&lt;span style=&quot;white-space: pre;&quot;&gt;&#x9;&lt;/span&gt;name: &quot;Nijaz&quot;,&lt;br&gt;&lt;div style=&quot;&quot;&gt;&lt;span style=&quot;background-color: initial;&quot;&gt;&lt;span style=&quot;white-space: pre;&quot;&gt;&#x9;&lt;/span&gt;friends:&amp;nbsp;&lt;/span&gt;&lt;span style=&quot;background-color: initial;&quot;&gt;[&lt;/span&gt;&lt;/div&gt;&lt;div style=&quot;&quot;&gt;&lt;span style=&quot;background-color: initial;&quot;&gt;&lt;span style=&quot;white-space: pre;&quot;&gt;&#x9;&lt;/span&gt;&lt;span style=&quot;white-space: pre;&quot;&gt;&#x9;&lt;/span&gt;{&amp;nbsp;&lt;/span&gt;&lt;/div&gt;&lt;div style=&quot;&quot;&gt;&lt;span style=&quot;background-color: initial;&quot;&gt;&lt;span style=&quot;white-space: pre;&quot;&gt;&#x9;&lt;/span&gt;&lt;span style=&quot;white-space: pre;&quot;&gt;&#x9;&lt;/span&gt;&lt;span style=&quot;white-space: pre;&quot;&gt;&#x9;&lt;/span&gt;id: 1,&lt;br&gt;&lt;/span&gt;&lt;/div&gt;&lt;div style=&quot;&quot;&gt;&lt;span style=&quot;background-color: initial;&quot;&gt;&lt;span style=&quot;white-space: pre;&quot;&gt;&#x9;&lt;/span&gt;&lt;span style=&quot;white-space: pre;&quot;&gt;&#x9;&lt;/span&gt;&lt;span style=&quot;white-space: pre;&quot;&gt;&#x9;&lt;/span&gt;name: Nikola,&lt;/span&gt;&lt;/div&gt;&lt;div style=&quot;&quot;&gt;&lt;span style=&quot;background-color: initial;&quot;&gt;&lt;span style=&quot;white-space: pre;&quot;&gt;&#x9;&lt;/span&gt;&lt;span style=&quot;white-space: pre;&quot;&gt;&#x9;&lt;/span&gt;&lt;span style=&quot;white-space: pre;&quot;&gt;&#x9;&lt;/span&gt;movements: [ -20, 20]&lt;br&gt;&lt;/span&gt;&lt;/div&gt;&lt;div style=&quot;&quot;&gt;&lt;span style=&quot;background-color: initial;&quot;&gt;&lt;span style=&quot;white-space: pre;&quot;&gt;&#x9;&lt;span style=&quot;white-space: pre;&quot;&gt;&#x9;&lt;/span&gt;&lt;/span&gt;},&lt;/span&gt;&lt;/div&gt;&lt;div style=&quot;&quot;&gt;&lt;div&gt;&lt;span style=&quot;background-color: initial;&quot;&gt;&lt;span style=&quot;white-space: pre;&quot;&gt;&#x9;&lt;/span&gt;&lt;span style=&quot;white-space: pre;&quot;&gt;&#x9;&lt;/span&gt;{&amp;nbsp;&lt;/span&gt;&lt;/div&gt;&lt;div&gt;&lt;span style=&quot;background-color: initial;&quot;&gt;&lt;span style=&quot;white-space: pre;&quot;&gt;&#x9;&lt;/span&gt;&lt;span style=&quot;white-space: pre;&quot;&gt;&#x9;&lt;/span&gt;&lt;span style=&quot;white-space: pre;&quot;&gt;&#x9;&lt;/span&gt;id: 2,&lt;br&gt;&lt;/span&gt;&lt;/div&gt;&lt;div&gt;&lt;span style=&quot;background-color: initial;&quot;&gt;&lt;span style=&quot;white-space: pre;&quot;&gt;&#x9;&lt;/span&gt;&lt;span style=&quot;white-space: pre;&quot;&gt;&#x9;&lt;/span&gt;&lt;span style=&quot;white-space: pre;&quot;&gt;&#x9;&lt;/span&gt;name: Alen,&lt;/span&gt;&lt;/div&gt;&lt;div&gt;&lt;span style=&quot;background-color: initial;&quot;&gt;&lt;span style=&quot;white-space: pre;&quot;&gt;&#x9;&lt;/span&gt;&lt;span style=&quot;white-space: pre;&quot;&gt;&#x9;&lt;/span&gt;&lt;span style=&quot;white-space: pre;&quot;&gt;&#x9;&lt;/span&gt;movements: [ -20, 20]&lt;br&gt;&lt;/span&gt;&lt;/div&gt;&lt;div&gt;&lt;span style=&quot;background-color: initial;&quot;&gt;&lt;span style=&quot;white-space: pre;&quot;&gt;&#x9;&lt;span style=&quot;white-space: pre;&quot;&gt;&#x9;&lt;/span&gt;&lt;/span&gt;}&lt;/span&gt;&lt;/div&gt;&lt;/div&gt;&lt;div style=&quot;&quot;&gt;&lt;span style=&quot;background-color: initial;&quot;&gt;&lt;span style=&quot;white-space: pre;&quot;&gt;&#x9;&lt;/span&gt;&lt;span style=&quot;white-space: pre;&quot;&gt;&#x9;&lt;/span&gt;&lt;br&gt;&lt;/span&gt;&lt;/div&gt;&lt;div style=&quot;&quot;&gt;&lt;span style=&quot;background-color: initial;&quot;&gt;&lt;span style=&quot;white-space: pre;&quot;&gt;&#x9;&lt;/span&gt;&amp;nbsp;]&amp;nbsp;&amp;nbsp;&lt;/span&gt;&lt;/div&gt;&lt;div style=&quot;&quot;&gt;&lt;span style=&quot;background-color: initial;&quot;&gt;}&lt;/span&gt;&lt;/div&gt;&lt;/div&gt;" placeholders="1" name="Variable" id="vCL47iHc-PsyLdccSqnO-20">
          <mxCell style="text;html=1;strokeColor=none;fillColor=none;align=left;verticalAlign=middle;whiteSpace=wrap;overflow=hidden;" vertex="1" parent="1">
            <mxGeometry x="120" y="-140" width="208" height="290" as="geometry" />
          </mxCell>
        </UserObject>
      </root>
    </mxGraphModel>
  </diagram>
</mxfile>
